%TF.GenerationSoftware,KiCad,Pcbnew,10.0.1*%
%TF.CreationDate,2026-04-29T08:15:31+05:30*%
%TF.ProjectId,atari_punk_console,61746172-695f-4707-956e-6b5f636f6e73,rev?*%
%TF.SameCoordinates,Original*%
%TF.FileFunction,Legend,Top*%
%TF.FilePolarity,Positive*%
%FSLAX46Y46*%
G04 Gerber Fmt 4.6, Leading zero omitted, Abs format (unit mm)*
G04 Created by KiCad (PCBNEW 10.0.1) date 2026-04-29 08:15:31*
%MOMM*%
%LPD*%
G01*
G04 APERTURE LIST*
%ADD10C,0.150000*%
%ADD11C,0.120000*%
G04 APERTURE END LIST*
D10*
X110157142Y-53534819D02*
X109680952Y-53534819D01*
X109680952Y-53534819D02*
X109680952Y-52534819D01*
X110442857Y-53487200D02*
X110585714Y-53534819D01*
X110585714Y-53534819D02*
X110823809Y-53534819D01*
X110823809Y-53534819D02*
X110919047Y-53487200D01*
X110919047Y-53487200D02*
X110966666Y-53439580D01*
X110966666Y-53439580D02*
X111014285Y-53344342D01*
X111014285Y-53344342D02*
X111014285Y-53249104D01*
X111014285Y-53249104D02*
X110966666Y-53153866D01*
X110966666Y-53153866D02*
X110919047Y-53106247D01*
X110919047Y-53106247D02*
X110823809Y-53058628D01*
X110823809Y-53058628D02*
X110633333Y-53011009D01*
X110633333Y-53011009D02*
X110538095Y-52963390D01*
X110538095Y-52963390D02*
X110490476Y-52915771D01*
X110490476Y-52915771D02*
X110442857Y-52820533D01*
X110442857Y-52820533D02*
X110442857Y-52725295D01*
X110442857Y-52725295D02*
X110490476Y-52630057D01*
X110490476Y-52630057D02*
X110538095Y-52582438D01*
X110538095Y-52582438D02*
X110633333Y-52534819D01*
X110633333Y-52534819D02*
X110871428Y-52534819D01*
X110871428Y-52534819D02*
X111014285Y-52582438D01*
X111966666Y-53534819D02*
X111395238Y-53534819D01*
X111680952Y-53534819D02*
X111680952Y-52534819D01*
X111680952Y-52534819D02*
X111585714Y-52677676D01*
X111585714Y-52677676D02*
X111490476Y-52772914D01*
X111490476Y-52772914D02*
X111395238Y-52820533D01*
X108309580Y-77866666D02*
X108357200Y-77914285D01*
X108357200Y-77914285D02*
X108404819Y-78057142D01*
X108404819Y-78057142D02*
X108404819Y-78152380D01*
X108404819Y-78152380D02*
X108357200Y-78295237D01*
X108357200Y-78295237D02*
X108261961Y-78390475D01*
X108261961Y-78390475D02*
X108166723Y-78438094D01*
X108166723Y-78438094D02*
X107976247Y-78485713D01*
X107976247Y-78485713D02*
X107833390Y-78485713D01*
X107833390Y-78485713D02*
X107642914Y-78438094D01*
X107642914Y-78438094D02*
X107547676Y-78390475D01*
X107547676Y-78390475D02*
X107452438Y-78295237D01*
X107452438Y-78295237D02*
X107404819Y-78152380D01*
X107404819Y-78152380D02*
X107404819Y-78057142D01*
X107404819Y-78057142D02*
X107452438Y-77914285D01*
X107452438Y-77914285D02*
X107500057Y-77866666D01*
X107404819Y-77533332D02*
X107404819Y-76914285D01*
X107404819Y-76914285D02*
X107785771Y-77247618D01*
X107785771Y-77247618D02*
X107785771Y-77104761D01*
X107785771Y-77104761D02*
X107833390Y-77009523D01*
X107833390Y-77009523D02*
X107881009Y-76961904D01*
X107881009Y-76961904D02*
X107976247Y-76914285D01*
X107976247Y-76914285D02*
X108214342Y-76914285D01*
X108214342Y-76914285D02*
X108309580Y-76961904D01*
X108309580Y-76961904D02*
X108357200Y-77009523D01*
X108357200Y-77009523D02*
X108404819Y-77104761D01*
X108404819Y-77104761D02*
X108404819Y-77390475D01*
X108404819Y-77390475D02*
X108357200Y-77485713D01*
X108357200Y-77485713D02*
X108309580Y-77533332D01*
X67189761Y-79599819D02*
X66856428Y-79123628D01*
X66618333Y-79599819D02*
X66618333Y-78599819D01*
X66618333Y-78599819D02*
X66999285Y-78599819D01*
X66999285Y-78599819D02*
X67094523Y-78647438D01*
X67094523Y-78647438D02*
X67142142Y-78695057D01*
X67142142Y-78695057D02*
X67189761Y-78790295D01*
X67189761Y-78790295D02*
X67189761Y-78933152D01*
X67189761Y-78933152D02*
X67142142Y-79028390D01*
X67142142Y-79028390D02*
X67094523Y-79076009D01*
X67094523Y-79076009D02*
X66999285Y-79123628D01*
X66999285Y-79123628D02*
X66618333Y-79123628D01*
X67475476Y-78599819D02*
X67808809Y-79599819D01*
X67808809Y-79599819D02*
X68142142Y-78599819D01*
X68999285Y-79599819D02*
X68427857Y-79599819D01*
X68713571Y-79599819D02*
X68713571Y-78599819D01*
X68713571Y-78599819D02*
X68618333Y-78742676D01*
X68618333Y-78742676D02*
X68523095Y-78837914D01*
X68523095Y-78837914D02*
X68427857Y-78885533D01*
X95353333Y-65584819D02*
X95020000Y-65108628D01*
X94781905Y-65584819D02*
X94781905Y-64584819D01*
X94781905Y-64584819D02*
X95162857Y-64584819D01*
X95162857Y-64584819D02*
X95258095Y-64632438D01*
X95258095Y-64632438D02*
X95305714Y-64680057D01*
X95305714Y-64680057D02*
X95353333Y-64775295D01*
X95353333Y-64775295D02*
X95353333Y-64918152D01*
X95353333Y-64918152D02*
X95305714Y-65013390D01*
X95305714Y-65013390D02*
X95258095Y-65061009D01*
X95258095Y-65061009D02*
X95162857Y-65108628D01*
X95162857Y-65108628D02*
X94781905Y-65108628D01*
X96305714Y-65584819D02*
X95734286Y-65584819D01*
X96020000Y-65584819D02*
X96020000Y-64584819D01*
X96020000Y-64584819D02*
X95924762Y-64727676D01*
X95924762Y-64727676D02*
X95829524Y-64822914D01*
X95829524Y-64822914D02*
X95734286Y-64870533D01*
X76959580Y-78366666D02*
X77007200Y-78414285D01*
X77007200Y-78414285D02*
X77054819Y-78557142D01*
X77054819Y-78557142D02*
X77054819Y-78652380D01*
X77054819Y-78652380D02*
X77007200Y-78795237D01*
X77007200Y-78795237D02*
X76911961Y-78890475D01*
X76911961Y-78890475D02*
X76816723Y-78938094D01*
X76816723Y-78938094D02*
X76626247Y-78985713D01*
X76626247Y-78985713D02*
X76483390Y-78985713D01*
X76483390Y-78985713D02*
X76292914Y-78938094D01*
X76292914Y-78938094D02*
X76197676Y-78890475D01*
X76197676Y-78890475D02*
X76102438Y-78795237D01*
X76102438Y-78795237D02*
X76054819Y-78652380D01*
X76054819Y-78652380D02*
X76054819Y-78557142D01*
X76054819Y-78557142D02*
X76102438Y-78414285D01*
X76102438Y-78414285D02*
X76150057Y-78366666D01*
X76150057Y-77985713D02*
X76102438Y-77938094D01*
X76102438Y-77938094D02*
X76054819Y-77842856D01*
X76054819Y-77842856D02*
X76054819Y-77604761D01*
X76054819Y-77604761D02*
X76102438Y-77509523D01*
X76102438Y-77509523D02*
X76150057Y-77461904D01*
X76150057Y-77461904D02*
X76245295Y-77414285D01*
X76245295Y-77414285D02*
X76340533Y-77414285D01*
X76340533Y-77414285D02*
X76483390Y-77461904D01*
X76483390Y-77461904D02*
X77054819Y-78033332D01*
X77054819Y-78033332D02*
X77054819Y-77414285D01*
X94533333Y-86334819D02*
X94200000Y-85858628D01*
X93961905Y-86334819D02*
X93961905Y-85334819D01*
X93961905Y-85334819D02*
X94342857Y-85334819D01*
X94342857Y-85334819D02*
X94438095Y-85382438D01*
X94438095Y-85382438D02*
X94485714Y-85430057D01*
X94485714Y-85430057D02*
X94533333Y-85525295D01*
X94533333Y-85525295D02*
X94533333Y-85668152D01*
X94533333Y-85668152D02*
X94485714Y-85763390D01*
X94485714Y-85763390D02*
X94438095Y-85811009D01*
X94438095Y-85811009D02*
X94342857Y-85858628D01*
X94342857Y-85858628D02*
X93961905Y-85858628D01*
X94914286Y-85430057D02*
X94961905Y-85382438D01*
X94961905Y-85382438D02*
X95057143Y-85334819D01*
X95057143Y-85334819D02*
X95295238Y-85334819D01*
X95295238Y-85334819D02*
X95390476Y-85382438D01*
X95390476Y-85382438D02*
X95438095Y-85430057D01*
X95438095Y-85430057D02*
X95485714Y-85525295D01*
X95485714Y-85525295D02*
X95485714Y-85620533D01*
X95485714Y-85620533D02*
X95438095Y-85763390D01*
X95438095Y-85763390D02*
X94866667Y-86334819D01*
X94866667Y-86334819D02*
X95485714Y-86334819D01*
X67789761Y-53899819D02*
X67456428Y-53423628D01*
X67218333Y-53899819D02*
X67218333Y-52899819D01*
X67218333Y-52899819D02*
X67599285Y-52899819D01*
X67599285Y-52899819D02*
X67694523Y-52947438D01*
X67694523Y-52947438D02*
X67742142Y-52995057D01*
X67742142Y-52995057D02*
X67789761Y-53090295D01*
X67789761Y-53090295D02*
X67789761Y-53233152D01*
X67789761Y-53233152D02*
X67742142Y-53328390D01*
X67742142Y-53328390D02*
X67694523Y-53376009D01*
X67694523Y-53376009D02*
X67599285Y-53423628D01*
X67599285Y-53423628D02*
X67218333Y-53423628D01*
X68075476Y-52899819D02*
X68408809Y-53899819D01*
X68408809Y-53899819D02*
X68742142Y-52899819D01*
X69027857Y-52995057D02*
X69075476Y-52947438D01*
X69075476Y-52947438D02*
X69170714Y-52899819D01*
X69170714Y-52899819D02*
X69408809Y-52899819D01*
X69408809Y-52899819D02*
X69504047Y-52947438D01*
X69504047Y-52947438D02*
X69551666Y-52995057D01*
X69551666Y-52995057D02*
X69599285Y-53090295D01*
X69599285Y-53090295D02*
X69599285Y-53185533D01*
X69599285Y-53185533D02*
X69551666Y-53328390D01*
X69551666Y-53328390D02*
X68980238Y-53899819D01*
X68980238Y-53899819D02*
X69599285Y-53899819D01*
X108309580Y-87266666D02*
X108357200Y-87314285D01*
X108357200Y-87314285D02*
X108404819Y-87457142D01*
X108404819Y-87457142D02*
X108404819Y-87552380D01*
X108404819Y-87552380D02*
X108357200Y-87695237D01*
X108357200Y-87695237D02*
X108261961Y-87790475D01*
X108261961Y-87790475D02*
X108166723Y-87838094D01*
X108166723Y-87838094D02*
X107976247Y-87885713D01*
X107976247Y-87885713D02*
X107833390Y-87885713D01*
X107833390Y-87885713D02*
X107642914Y-87838094D01*
X107642914Y-87838094D02*
X107547676Y-87790475D01*
X107547676Y-87790475D02*
X107452438Y-87695237D01*
X107452438Y-87695237D02*
X107404819Y-87552380D01*
X107404819Y-87552380D02*
X107404819Y-87457142D01*
X107404819Y-87457142D02*
X107452438Y-87314285D01*
X107452438Y-87314285D02*
X107500057Y-87266666D01*
X108404819Y-86314285D02*
X108404819Y-86885713D01*
X108404819Y-86599999D02*
X107404819Y-86599999D01*
X107404819Y-86599999D02*
X107547676Y-86695237D01*
X107547676Y-86695237D02*
X107642914Y-86790475D01*
X107642914Y-86790475D02*
X107690533Y-86885713D01*
X100456667Y-53617200D02*
X100599524Y-53664819D01*
X100599524Y-53664819D02*
X100837619Y-53664819D01*
X100837619Y-53664819D02*
X100932857Y-53617200D01*
X100932857Y-53617200D02*
X100980476Y-53569580D01*
X100980476Y-53569580D02*
X101028095Y-53474342D01*
X101028095Y-53474342D02*
X101028095Y-53379104D01*
X101028095Y-53379104D02*
X100980476Y-53283866D01*
X100980476Y-53283866D02*
X100932857Y-53236247D01*
X100932857Y-53236247D02*
X100837619Y-53188628D01*
X100837619Y-53188628D02*
X100647143Y-53141009D01*
X100647143Y-53141009D02*
X100551905Y-53093390D01*
X100551905Y-53093390D02*
X100504286Y-53045771D01*
X100504286Y-53045771D02*
X100456667Y-52950533D01*
X100456667Y-52950533D02*
X100456667Y-52855295D01*
X100456667Y-52855295D02*
X100504286Y-52760057D01*
X100504286Y-52760057D02*
X100551905Y-52712438D01*
X100551905Y-52712438D02*
X100647143Y-52664819D01*
X100647143Y-52664819D02*
X100885238Y-52664819D01*
X100885238Y-52664819D02*
X101028095Y-52712438D01*
X101361429Y-52664819D02*
X101599524Y-53664819D01*
X101599524Y-53664819D02*
X101790000Y-52950533D01*
X101790000Y-52950533D02*
X101980476Y-53664819D01*
X101980476Y-53664819D02*
X102218572Y-52664819D01*
X103123333Y-53664819D02*
X102551905Y-53664819D01*
X102837619Y-53664819D02*
X102837619Y-52664819D01*
X102837619Y-52664819D02*
X102742381Y-52807676D01*
X102742381Y-52807676D02*
X102647143Y-52902914D01*
X102647143Y-52902914D02*
X102551905Y-52950533D01*
X83964819Y-78851904D02*
X84774342Y-78851904D01*
X84774342Y-78851904D02*
X84869580Y-78804285D01*
X84869580Y-78804285D02*
X84917200Y-78756666D01*
X84917200Y-78756666D02*
X84964819Y-78661428D01*
X84964819Y-78661428D02*
X84964819Y-78470952D01*
X84964819Y-78470952D02*
X84917200Y-78375714D01*
X84917200Y-78375714D02*
X84869580Y-78328095D01*
X84869580Y-78328095D02*
X84774342Y-78280476D01*
X84774342Y-78280476D02*
X83964819Y-78280476D01*
X84964819Y-77280476D02*
X84964819Y-77851904D01*
X84964819Y-77566190D02*
X83964819Y-77566190D01*
X83964819Y-77566190D02*
X84107676Y-77661428D01*
X84107676Y-77661428D02*
X84202914Y-77756666D01*
X84202914Y-77756666D02*
X84250533Y-77851904D01*
X110114285Y-64251009D02*
X110257142Y-64298628D01*
X110257142Y-64298628D02*
X110304761Y-64346247D01*
X110304761Y-64346247D02*
X110352380Y-64441485D01*
X110352380Y-64441485D02*
X110352380Y-64584342D01*
X110352380Y-64584342D02*
X110304761Y-64679580D01*
X110304761Y-64679580D02*
X110257142Y-64727200D01*
X110257142Y-64727200D02*
X110161904Y-64774819D01*
X110161904Y-64774819D02*
X109780952Y-64774819D01*
X109780952Y-64774819D02*
X109780952Y-63774819D01*
X109780952Y-63774819D02*
X110114285Y-63774819D01*
X110114285Y-63774819D02*
X110209523Y-63822438D01*
X110209523Y-63822438D02*
X110257142Y-63870057D01*
X110257142Y-63870057D02*
X110304761Y-63965295D01*
X110304761Y-63965295D02*
X110304761Y-64060533D01*
X110304761Y-64060533D02*
X110257142Y-64155771D01*
X110257142Y-64155771D02*
X110209523Y-64203390D01*
X110209523Y-64203390D02*
X110114285Y-64251009D01*
X110114285Y-64251009D02*
X109780952Y-64251009D01*
X110638095Y-63774819D02*
X111209523Y-63774819D01*
X110923809Y-64774819D02*
X110923809Y-63774819D01*
X112066666Y-64774819D02*
X111495238Y-64774819D01*
X111780952Y-64774819D02*
X111780952Y-63774819D01*
X111780952Y-63774819D02*
X111685714Y-63917676D01*
X111685714Y-63917676D02*
X111590476Y-64012914D01*
X111590476Y-64012914D02*
X111495238Y-64060533D01*
%TO.C,LS1*%
D11*
X112180000Y-56730000D02*
X112180000Y-59380000D01*
X109420000Y-54080000D02*
X110800000Y-54080000D01*
X109420000Y-55460000D02*
X109420000Y-54080000D01*
X109420000Y-56730000D02*
X112180000Y-56730000D01*
X109420000Y-56730000D02*
X109420000Y-59380000D01*
X109420000Y-59380000D02*
X112180000Y-59380000D01*
%TO.C,C3*%
X112520000Y-75030000D02*
X112520000Y-80370000D01*
X112520000Y-80370000D02*
X111826000Y-80370000D01*
X111826000Y-75030000D02*
X112520000Y-75030000D01*
X109774000Y-80370000D02*
X109080000Y-80370000D01*
X109080000Y-75030000D02*
X109774000Y-75030000D01*
X109080000Y-80370000D02*
X109080000Y-75030000D01*
%TO.C,RV1*%
X72660000Y-80285000D02*
X72660000Y-90035000D01*
X72660000Y-90035000D02*
X62910000Y-90035000D01*
X62910000Y-80285000D02*
X72660000Y-80285000D01*
X62910000Y-90035000D02*
X62910000Y-80285000D01*
%TO.C,R1*%
X99560000Y-67500000D02*
X98790000Y-67500000D01*
X91480000Y-67500000D02*
X92250000Y-67500000D01*
X92250000Y-66130000D02*
X98790000Y-66130000D01*
X98790000Y-68870000D01*
X92250000Y-68870000D01*
X92250000Y-66130000D01*
%TO.C,C2*%
X80470000Y-74480000D02*
X80470000Y-81920000D01*
X80470000Y-81920000D02*
X77730000Y-81920000D01*
X77730000Y-74480000D02*
X80470000Y-74480000D01*
X77730000Y-81920000D02*
X77730000Y-74480000D01*
%TO.C,R2*%
X101280000Y-88600000D02*
X99320000Y-88600000D01*
X88120000Y-88600000D02*
X90080000Y-88600000D01*
X90080000Y-86880000D02*
X99320000Y-86880000D01*
X99320000Y-90320000D01*
X90080000Y-90320000D01*
X90080000Y-86880000D01*
%TO.C,RV2*%
X73260000Y-54585000D02*
X73260000Y-64335000D01*
X73260000Y-64335000D02*
X63510000Y-64335000D01*
X63510000Y-54585000D02*
X73260000Y-54585000D01*
X63510000Y-64335000D02*
X63510000Y-54585000D01*
%TO.C,C1*%
X112520000Y-84430000D02*
X112520000Y-89770000D01*
X112520000Y-89770000D02*
X111826000Y-89770000D01*
X111826000Y-84430000D02*
X112520000Y-84430000D01*
X109774000Y-89770000D02*
X109080000Y-89770000D01*
X109080000Y-84430000D02*
X109774000Y-84430000D01*
X109080000Y-89770000D02*
X109080000Y-84430000D01*
%TO.C,SW1*%
X104210000Y-53940000D02*
X104210000Y-54250000D01*
X104210000Y-58460000D02*
X104210000Y-58150000D01*
X104210000Y-58460000D02*
X95390000Y-58460000D01*
X98300000Y-53240000D02*
X97300000Y-53240000D01*
X97800000Y-53740000D02*
X98300000Y-53240000D01*
X97300000Y-53240000D02*
X97800000Y-53740000D01*
X95390000Y-53940000D02*
X104210000Y-53940000D01*
X95390000Y-54250000D02*
X95390000Y-53940000D01*
X95390000Y-58460000D02*
X95390000Y-58150000D01*
%TO.C,U1*%
X103410000Y-75440000D02*
X85510000Y-75440000D01*
X103410000Y-80740000D02*
X103410000Y-75440000D01*
X85510000Y-75440000D02*
X85510000Y-77090000D01*
X85510000Y-79090000D02*
X85510000Y-80740000D01*
X85510000Y-80740000D02*
X103410000Y-80740000D01*
X85510000Y-77090000D02*
G75*
G02*
X85510000Y-79090000I0J-1000000D01*
G01*
%TO.C,BT1*%
X112280000Y-67970000D02*
X112280000Y-70620000D01*
X109520000Y-65320000D02*
X110900000Y-65320000D01*
X109520000Y-66700000D02*
X109520000Y-65320000D01*
X109520000Y-67970000D02*
X112280000Y-67970000D01*
X109520000Y-67970000D02*
X109520000Y-70620000D01*
X109520000Y-70620000D02*
X112280000Y-70620000D01*
%TD*%
M02*
