%TF.GenerationSoftware,KiCad,Pcbnew,10.0.1*%
%TF.CreationDate,2026-04-29T08:15:31+05:30*%
%TF.ProjectId,atari_punk_console,61746172-695f-4707-956e-6b5f636f6e73,rev?*%
%TF.SameCoordinates,Original*%
%TF.FileFunction,Copper,L1,Top*%
%TF.FilePolarity,Positive*%
%FSLAX46Y46*%
G04 Gerber Fmt 4.6, Leading zero omitted, Abs format (unit mm)*
G04 Created by KiCad (PCBNEW 10.0.1) date 2026-04-29 08:15:31*
%MOMM*%
%LPD*%
G01*
G04 APERTURE LIST*
G04 Aperture macros list*
%AMRoundRect*
0 Rectangle with rounded corners*
0 $1 Rounding radius*
0 $2 $3 $4 $5 $6 $7 $8 $9 X,Y pos of 4 corners*
0 Add a 4 corners polygon primitive as box body*
4,1,4,$2,$3,$4,$5,$6,$7,$8,$9,$2,$3,0*
0 Add four circle primitives for the rounded corners*
1,1,$1+$1,$2,$3*
1,1,$1+$1,$4,$5*
1,1,$1+$1,$6,$7*
1,1,$1+$1,$8,$9*
0 Add four rect primitives between the rounded corners*
20,1,$1+$1,$2,$3,$4,$5,0*
20,1,$1+$1,$4,$5,$6,$7,0*
20,1,$1+$1,$6,$7,$8,$9,0*
20,1,$1+$1,$8,$9,$2,$3,0*%
G04 Aperture macros list end*
%ADD10C,0.125000*%
%TA.AperFunction,ComponentPad*%
%ADD11R,1.700000X1.700000*%
%TD*%
%TA.AperFunction,ComponentPad*%
%ADD12C,1.700000*%
%TD*%
%TA.AperFunction,ComponentPad*%
%ADD13C,1.600000*%
%TD*%
%TA.AperFunction,ComponentPad*%
%ADD14C,1.440000*%
%TD*%
%TA.AperFunction,ComponentPad*%
%ADD15C,1.500000*%
%TD*%
%TA.AperFunction,ComponentPad*%
%ADD16O,2.200000X3.500000*%
%TD*%
%TA.AperFunction,ComponentPad*%
%ADD17R,1.500000X2.500000*%
%TD*%
%TA.AperFunction,ComponentPad*%
%ADD18O,1.500000X2.500000*%
%TD*%
%TA.AperFunction,ComponentPad*%
%ADD19RoundRect,0.250000X0.550000X-0.550000X0.550000X0.550000X-0.550000X0.550000X-0.550000X-0.550000X0*%
%TD*%
%TA.AperFunction,ViaPad*%
%ADD20C,0.685800*%
%TD*%
%TA.AperFunction,Conductor*%
%ADD21C,0.400000*%
%TD*%
G04 APERTURE END LIST*
D10*
G36*
X63388258Y-72638140D02*
G01*
X62732466Y-72638140D01*
X62349921Y-72015076D01*
X61147636Y-72015076D01*
X60765090Y-72638140D01*
X60109298Y-72638140D01*
X60641764Y-71807470D01*
X61284412Y-71807470D01*
X62213450Y-71807470D01*
X61776256Y-71086099D01*
X61721606Y-71086099D01*
X61284412Y-71807470D01*
X60641764Y-71807470D01*
X61475532Y-70506755D01*
X62022025Y-70506755D01*
X63388258Y-72638140D01*
G37*
G36*
X64891268Y-72638140D02*
G01*
X64891268Y-71676311D01*
X64891268Y-70714483D01*
X63825453Y-70714483D01*
X63825453Y-70506755D01*
X66640047Y-70506755D01*
X66640047Y-70714483D01*
X65519583Y-70714483D01*
X65519583Y-72638140D01*
X64891268Y-72638140D01*
G37*
G36*
X70383374Y-72638140D02*
G01*
X69727581Y-72638140D01*
X69345036Y-72015076D01*
X68142751Y-72015076D01*
X67760205Y-72638140D01*
X67104413Y-72638140D01*
X67636879Y-71807470D01*
X68279527Y-71807470D01*
X69208565Y-71807470D01*
X68771371Y-71086099D01*
X68716721Y-71086099D01*
X68279527Y-71807470D01*
X67636879Y-71807470D01*
X68470647Y-70506755D01*
X69017140Y-70506755D01*
X70383374Y-72638140D01*
G37*
G36*
X72522050Y-70518327D02*
G01*
X72815783Y-70551612D01*
X73075666Y-70605750D01*
X73307266Y-70681632D01*
X73456956Y-70756602D01*
X73567248Y-70846786D01*
X73637303Y-70955275D01*
X73662334Y-71086099D01*
X73638518Y-71204784D01*
X73570307Y-71308268D01*
X73460164Y-71399198D01*
X73307266Y-71479574D01*
X73132849Y-71547440D01*
X72969775Y-71593503D01*
X72815422Y-71621601D01*
X73799110Y-72638140D01*
X73143318Y-72638140D01*
X72214279Y-71654452D01*
X71449188Y-71654452D01*
X71449188Y-72638140D01*
X70820568Y-72638140D01*
X70820568Y-71446723D01*
X71449188Y-71446723D01*
X72241451Y-71446723D01*
X72450083Y-71435895D01*
X72639390Y-71403720D01*
X72815422Y-71348415D01*
X72931446Y-71284654D01*
X73006367Y-71199433D01*
X73034019Y-71086099D01*
X73004772Y-70980822D01*
X72922166Y-70894812D01*
X72787944Y-70823782D01*
X72590360Y-70764329D01*
X72348689Y-70727558D01*
X72050331Y-70714483D01*
X71449188Y-70714483D01*
X71449188Y-71446723D01*
X70820568Y-71446723D01*
X70820568Y-70506755D01*
X72186802Y-70506755D01*
X72522050Y-70518327D01*
G37*
G36*
X76039733Y-72397683D02*
G01*
X76340151Y-72397683D01*
X76340151Y-72638140D01*
X75110694Y-72638140D01*
X75110694Y-72397683D01*
X75411113Y-72397683D01*
X75411113Y-70747212D01*
X75110694Y-70747212D01*
X75110694Y-70506755D01*
X76340151Y-70506755D01*
X76340151Y-70747212D01*
X76039733Y-70747212D01*
X76039733Y-72397683D01*
G37*
D11*
%TO.P,LS1,1,1_1*%
%TO.N,Net-(LS1-Pad1)*%
X110800000Y-55460000D03*
D12*
%TO.P,LS1,2,2_2*%
%TO.N,GND*%
X110800000Y-58000000D03*
%TD*%
D13*
%TO.P,C3,1*%
%TO.N,Net-(U1B-CONT)*%
X110800000Y-80200000D03*
%TO.P,C3,2*%
%TO.N,GND*%
X110800000Y-75200000D03*
%TD*%
D14*
%TO.P,RV1,1,1_1*%
%TO.N,VCC*%
X67800000Y-87700000D03*
%TO.P,RV1,2,2_2*%
%TO.N,Net-(U1A-DISCH)*%
X70340000Y-85160000D03*
%TO.P,RV1,3,3_3*%
%TO.N,Net-(U1A-THRES)*%
X67800000Y-82620000D03*
%TD*%
D13*
%TO.P,R1,1*%
%TO.N,Net-(U1A-OUT)*%
X90440000Y-67500000D03*
%TO.P,R1,2*%
%TO.N,Net-(U1B-THRES)*%
X100600000Y-67500000D03*
%TD*%
D15*
%TO.P,C2,1*%
%TO.N,GND*%
X79100000Y-80700000D03*
%TO.P,C2,2*%
%TO.N,Net-(U1B-THRES)*%
X79100000Y-75700000D03*
%TD*%
D13*
%TO.P,R2,1*%
%TO.N,Net-(U1B-OUT)*%
X87080000Y-88600000D03*
%TO.P,R2,2*%
%TO.N,Net-(LS1-Pad1)*%
X102320000Y-88600000D03*
%TD*%
D14*
%TO.P,RV2,1,1_1*%
%TO.N,VCC*%
X68400000Y-62000000D03*
%TO.P,RV2,2,2_2*%
%TO.N,Net-(U1B-DISCH)*%
X70940000Y-59460000D03*
%TO.P,RV2,3,3_3*%
%TO.N,Net-(U1B-THRES)*%
X68400000Y-56920000D03*
%TD*%
D13*
%TO.P,C1,1*%
%TO.N,Net-(U1A-CONT)*%
X110800000Y-89600000D03*
%TO.P,C1,2*%
%TO.N,GND*%
X110800000Y-84600000D03*
%TD*%
D16*
%TO.P,SW1,*%
%TO.N,*%
X95700000Y-56200000D03*
X103900000Y-56200000D03*
D17*
%TO.P,SW1,1,A_1*%
%TO.N,Net-(BT1-+)*%
X97800000Y-56200000D03*
D18*
%TO.P,SW1,2,B_2*%
%TO.N,unconnected-(SW1-B-Pad2)*%
X99800000Y-56200000D03*
%TO.P,SW1,3,C_3*%
%TO.N,VCC*%
X101800000Y-56200000D03*
%TD*%
D19*
%TO.P,U1,1,DISCH_1*%
%TO.N,Net-(U1A-DISCH)*%
X86840000Y-81900000D03*
D13*
%TO.P,U1,2,THRES_2*%
%TO.N,Net-(U1A-THRES)*%
X89380000Y-81900000D03*
%TO.P,U1,3,CONT_3*%
%TO.N,Net-(U1A-CONT)*%
X91920000Y-81900000D03*
%TO.P,U1,4,~{RST}_4*%
%TO.N,VCC*%
X94460000Y-81900000D03*
%TO.P,U1,5,OUT_5*%
%TO.N,Net-(U1A-OUT)*%
X97000000Y-81900000D03*
%TO.P,U1,6,TRIG_6*%
%TO.N,Net-(U1A-THRES)*%
X99540000Y-81900000D03*
%TO.P,U1,7,GND_7*%
%TO.N,GND*%
X102080000Y-81900000D03*
%TO.P,U1,8,TRIG_8*%
%TO.N,Net-(U1B-THRES)*%
X102080000Y-74280000D03*
%TO.P,U1,9,OUT_9*%
%TO.N,Net-(U1B-OUT)*%
X99540000Y-74280000D03*
%TO.P,U1,10,~{RST}_10*%
%TO.N,VCC*%
X97000000Y-74280000D03*
%TO.P,U1,11,CONT_11*%
%TO.N,Net-(U1B-CONT)*%
X94460000Y-74280000D03*
%TO.P,U1,12,THRES_12*%
%TO.N,Net-(U1B-THRES)*%
X91920000Y-74280000D03*
%TO.P,U1,13,DISCH_13*%
%TO.N,Net-(U1B-DISCH)*%
X89380000Y-74280000D03*
%TO.P,U1,14,VCC_14*%
%TO.N,VCC*%
X86840000Y-74280000D03*
%TD*%
D11*
%TO.P,BT1,1,+_1*%
%TO.N,Net-(BT1-+)*%
X110900000Y-66700000D03*
D12*
%TO.P,BT1,2,-_2*%
%TO.N,GND*%
X110900000Y-69240000D03*
%TD*%
D20*
%TO.N,VCC*%
X106000000Y-72000000D03*
X106000000Y-83000000D03*
%TO.N,Net-(U1B-THRES)*%
X97457100Y-76329719D03*
X95000000Y-76500000D03*
%TO.N,VCC*%
X94500000Y-72000000D03*
X91000000Y-72000000D03*
%TD*%
%TO.N,VCC*%
D21*
X74560000Y-62000000D02*
X86840000Y-74280000D01*
X68400000Y-62000000D02*
X74560000Y-62000000D01*
%TO.N,Net-(U1B-DISCH)*%
X74560000Y-59460000D02*
X89380000Y-74280000D01*
X70940000Y-59460000D02*
X74560000Y-59460000D01*
%TO.N,Net-(U1B-THRES)*%
X74560000Y-56920000D02*
X91920000Y-74280000D01*
X68400000Y-56920000D02*
X74560000Y-56920000D01*
X92780000Y-74280000D02*
X95000000Y-76500000D01*
X91920000Y-74280000D02*
X92780000Y-74280000D01*
X100030281Y-76329719D02*
X102080000Y-74280000D01*
X97457100Y-76329719D02*
X100030281Y-76329719D01*
%TO.N,Net-(U1B-CONT)*%
X100380000Y-80200000D02*
X94460000Y-74280000D01*
X110800000Y-80200000D02*
X100380000Y-80200000D01*
%TO.N,VCC*%
X94500000Y-72000000D02*
X91000000Y-72000000D01*
X89379999Y-86980001D02*
X94460000Y-81900000D01*
X67800000Y-87700000D02*
X68519999Y-86980001D01*
X68519999Y-86980001D02*
X89379999Y-86980001D01*
%TO.N,Net-(U1A-DISCH)*%
X83580000Y-85160000D02*
X86840000Y-81900000D01*
X70340000Y-85160000D02*
X83580000Y-85160000D01*
%TO.N,Net-(U1A-THRES)*%
X67800000Y-82620000D02*
X84197072Y-82620000D01*
X88253000Y-80773000D02*
X89380000Y-81900000D01*
X90507000Y-80773000D02*
X89380000Y-81900000D01*
X98413000Y-80773000D02*
X90507000Y-80773000D01*
X99540000Y-81900000D02*
X98413000Y-80773000D01*
X84197072Y-82620000D02*
X86044072Y-80773000D01*
X86044072Y-80773000D02*
X88253000Y-80773000D01*
%TO.N,Net-(BT1-+)*%
X110900000Y-61900000D02*
X110900000Y-66700000D01*
X108000000Y-58500000D02*
X108000000Y-59000000D01*
X108000000Y-59000000D02*
X110900000Y-61900000D01*
X100000000Y-58500000D02*
X108000000Y-58500000D01*
X97800000Y-56300000D02*
X100000000Y-58500000D01*
X97800000Y-56200000D02*
X97800000Y-56300000D01*
%TO.N,VCC*%
X95587000Y-83027000D02*
X105973000Y-83027000D01*
X105973000Y-83027000D02*
X106000000Y-83000000D01*
X94460000Y-81900000D02*
X95587000Y-83027000D01*
X106000000Y-72000000D02*
X99280000Y-72000000D01*
X99280000Y-72000000D02*
X97000000Y-74280000D01*
%TD*%
%TA.AperFunction,Conductor*%
%TO.N,GND*%
G36*
X113950959Y-48520185D02*
G01*
X113996714Y-48572989D01*
X114006658Y-48642147D01*
X113977633Y-48705703D01*
X113937721Y-48736220D01*
X113788560Y-48808051D01*
X113550753Y-48957476D01*
X113331175Y-49132583D01*
X113132583Y-49331175D01*
X112957476Y-49550753D01*
X112808053Y-49788557D01*
X112686200Y-50041588D01*
X112593443Y-50306670D01*
X112593439Y-50306682D01*
X112530945Y-50580487D01*
X112530942Y-50580505D01*
X112499500Y-50859568D01*
X112499500Y-51140431D01*
X112530942Y-51419494D01*
X112530945Y-51419512D01*
X112593439Y-51693317D01*
X112593443Y-51693329D01*
X112686200Y-51958411D01*
X112808053Y-52211442D01*
X112808055Y-52211445D01*
X112957477Y-52449248D01*
X113132584Y-52668825D01*
X113331175Y-52867416D01*
X113550752Y-53042523D01*
X113788555Y-53191945D01*
X114041592Y-53313801D01*
X114240680Y-53383465D01*
X114306670Y-53406556D01*
X114306682Y-53406560D01*
X114580491Y-53469055D01*
X114580497Y-53469055D01*
X114580505Y-53469057D01*
X114766547Y-53490018D01*
X114859569Y-53500499D01*
X114859572Y-53500500D01*
X114859575Y-53500500D01*
X115140428Y-53500500D01*
X115140429Y-53500499D01*
X115283055Y-53484429D01*
X115419494Y-53469057D01*
X115419499Y-53469056D01*
X115419509Y-53469055D01*
X115693318Y-53406560D01*
X115958408Y-53313801D01*
X116211445Y-53191945D01*
X116449248Y-53042523D01*
X116668825Y-52867416D01*
X116867416Y-52668825D01*
X117042523Y-52449248D01*
X117191945Y-52211445D01*
X117226241Y-52140229D01*
X117263780Y-52062279D01*
X117310602Y-52010419D01*
X117378029Y-51992106D01*
X117444653Y-52013154D01*
X117489322Y-52066880D01*
X117499500Y-52116080D01*
X117499500Y-91883919D01*
X117479815Y-91950958D01*
X117427011Y-91996713D01*
X117357853Y-92006657D01*
X117294297Y-91977632D01*
X117263780Y-91937721D01*
X117191946Y-91788557D01*
X117149790Y-91721466D01*
X117042523Y-91550752D01*
X116867416Y-91331175D01*
X116668825Y-91132584D01*
X116449248Y-90957477D01*
X116211445Y-90808055D01*
X116211442Y-90808053D01*
X115958411Y-90686200D01*
X115693329Y-90593443D01*
X115693317Y-90593439D01*
X115419512Y-90530945D01*
X115419494Y-90530942D01*
X115140431Y-90499500D01*
X115140425Y-90499500D01*
X114859575Y-90499500D01*
X114859568Y-90499500D01*
X114580505Y-90530942D01*
X114580487Y-90530945D01*
X114306682Y-90593439D01*
X114306670Y-90593443D01*
X114041588Y-90686200D01*
X113788557Y-90808053D01*
X113550753Y-90957476D01*
X113331175Y-91132583D01*
X113132583Y-91331175D01*
X112957476Y-91550753D01*
X112808053Y-91788557D01*
X112686200Y-92041588D01*
X112593443Y-92306670D01*
X112593439Y-92306682D01*
X112530945Y-92580487D01*
X112530942Y-92580505D01*
X112499500Y-92859568D01*
X112499500Y-93140431D01*
X112530942Y-93419494D01*
X112530945Y-93419512D01*
X112593439Y-93693317D01*
X112593443Y-93693329D01*
X112686200Y-93958411D01*
X112808053Y-94211442D01*
X112808055Y-94211445D01*
X112957477Y-94449248D01*
X113132584Y-94668825D01*
X113331175Y-94867416D01*
X113550752Y-95042523D01*
X113788555Y-95191945D01*
X113788560Y-95191948D01*
X113937721Y-95263780D01*
X113989581Y-95310602D01*
X114007894Y-95378029D01*
X113986846Y-95444653D01*
X113933120Y-95489322D01*
X113883920Y-95499500D01*
X58624500Y-95499500D01*
X58557461Y-95479815D01*
X58511706Y-95427011D01*
X58500500Y-95375500D01*
X58500500Y-93116080D01*
X58520185Y-93049041D01*
X58572989Y-93003286D01*
X58642147Y-92993342D01*
X58705703Y-93022367D01*
X58736220Y-93062279D01*
X58808051Y-93211439D01*
X58808055Y-93211445D01*
X58957477Y-93449248D01*
X59132584Y-93668825D01*
X59331175Y-93867416D01*
X59550752Y-94042523D01*
X59788555Y-94191945D01*
X60041592Y-94313801D01*
X60240680Y-94383465D01*
X60306670Y-94406556D01*
X60306682Y-94406560D01*
X60580491Y-94469055D01*
X60580497Y-94469055D01*
X60580505Y-94469057D01*
X60766547Y-94490018D01*
X60859569Y-94500499D01*
X60859572Y-94500500D01*
X60859575Y-94500500D01*
X61140428Y-94500500D01*
X61140429Y-94500499D01*
X61283055Y-94484429D01*
X61419494Y-94469057D01*
X61419499Y-94469056D01*
X61419509Y-94469055D01*
X61693318Y-94406560D01*
X61958408Y-94313801D01*
X62211445Y-94191945D01*
X62449248Y-94042523D01*
X62668825Y-93867416D01*
X62867416Y-93668825D01*
X63042523Y-93449248D01*
X63191945Y-93211445D01*
X63313801Y-92958408D01*
X63406560Y-92693318D01*
X63469055Y-92419509D01*
X63481768Y-92306682D01*
X63500499Y-92140431D01*
X63500500Y-92140427D01*
X63500500Y-91859572D01*
X63500499Y-91859568D01*
X63469057Y-91580505D01*
X63469054Y-91580487D01*
X63462267Y-91550753D01*
X63406560Y-91306682D01*
X63313801Y-91041592D01*
X63191945Y-90788555D01*
X63042523Y-90550752D01*
X62867416Y-90331175D01*
X62668825Y-90132584D01*
X62449248Y-89957477D01*
X62211445Y-89808055D01*
X62211442Y-89808053D01*
X61958411Y-89686200D01*
X61693329Y-89593443D01*
X61693317Y-89593439D01*
X61419512Y-89530945D01*
X61419494Y-89530942D01*
X61140431Y-89499500D01*
X61140425Y-89499500D01*
X60859575Y-89499500D01*
X60859568Y-89499500D01*
X60580505Y-89530942D01*
X60580487Y-89530945D01*
X60306682Y-89593439D01*
X60306670Y-89593443D01*
X60041588Y-89686200D01*
X59788557Y-89808053D01*
X59550753Y-89957476D01*
X59331175Y-90132583D01*
X59132583Y-90331175D01*
X58957476Y-90550753D01*
X58808053Y-90788557D01*
X58736220Y-90937721D01*
X58689398Y-90989580D01*
X58621970Y-91007893D01*
X58555347Y-90986845D01*
X58510678Y-90933119D01*
X58500500Y-90883919D01*
X58500500Y-82523945D01*
X66579500Y-82523945D01*
X66579500Y-82716054D01*
X66609553Y-82905802D01*
X66668916Y-83088506D01*
X66727424Y-83203333D01*
X66756135Y-83259681D01*
X66869055Y-83415102D01*
X67004898Y-83550945D01*
X67160319Y-83663865D01*
X67324280Y-83747408D01*
X67331493Y-83751083D01*
X67422845Y-83780764D01*
X67514199Y-83810447D01*
X67703945Y-83840500D01*
X67703946Y-83840500D01*
X67896054Y-83840500D01*
X67896055Y-83840500D01*
X68085801Y-83810447D01*
X68268509Y-83751082D01*
X68439681Y-83663865D01*
X68595102Y-83550945D01*
X68730945Y-83415102D01*
X68742277Y-83399505D01*
X68762541Y-83371615D01*
X68817871Y-83328949D01*
X68862859Y-83320500D01*
X84129480Y-83320500D01*
X84196519Y-83340185D01*
X84242274Y-83392989D01*
X84252218Y-83462147D01*
X84223193Y-83525703D01*
X84217161Y-83532181D01*
X83326162Y-84423181D01*
X83264839Y-84456666D01*
X83238481Y-84459500D01*
X71402859Y-84459500D01*
X71335820Y-84439815D01*
X71302541Y-84408385D01*
X71270950Y-84364904D01*
X71270946Y-84364899D01*
X71135104Y-84229057D01*
X71135102Y-84229055D01*
X70979681Y-84116135D01*
X70949914Y-84100968D01*
X70808506Y-84028916D01*
X70625802Y-83969553D01*
X70530928Y-83954526D01*
X70436055Y-83939500D01*
X70243945Y-83939500D01*
X70180696Y-83949517D01*
X70054197Y-83969553D01*
X69871493Y-84028916D01*
X69700318Y-84116135D01*
X69611645Y-84180560D01*
X69544898Y-84229055D01*
X69544896Y-84229057D01*
X69544895Y-84229057D01*
X69409057Y-84364895D01*
X69409057Y-84364896D01*
X69409055Y-84364898D01*
X69409051Y-84364904D01*
X69296135Y-84520318D01*
X69208916Y-84691493D01*
X69149553Y-84874197D01*
X69119500Y-85063945D01*
X69119500Y-85256054D01*
X69149553Y-85445802D01*
X69208916Y-85628506D01*
X69208918Y-85628509D01*
X69296135Y-85799681D01*
X69409055Y-85955102D01*
X69409057Y-85955104D01*
X69521773Y-86067820D01*
X69555258Y-86129143D01*
X69550274Y-86198835D01*
X69508402Y-86254768D01*
X69442938Y-86279185D01*
X69434092Y-86279501D01*
X68451002Y-86279501D01*
X68342589Y-86301066D01*
X68342588Y-86301066D01*
X68329130Y-86303743D01*
X68315672Y-86306420D01*
X68315670Y-86306421D01*
X68262865Y-86328293D01*
X68262863Y-86328294D01*
X68262862Y-86328293D01*
X68188195Y-86359222D01*
X68188179Y-86359231D01*
X68158846Y-86378831D01*
X68158829Y-86378843D01*
X68156350Y-86380500D01*
X68073456Y-86435888D01*
X68049724Y-86459618D01*
X68042328Y-86465095D01*
X68017812Y-86474090D01*
X67994897Y-86486602D01*
X67982772Y-86486948D01*
X67976734Y-86489164D01*
X67968613Y-86487352D01*
X67949148Y-86487908D01*
X67896061Y-86479500D01*
X67896055Y-86479500D01*
X67703945Y-86479500D01*
X67654370Y-86487352D01*
X67514197Y-86509553D01*
X67331493Y-86568916D01*
X67160318Y-86656135D01*
X67071645Y-86720560D01*
X67004898Y-86769055D01*
X67004896Y-86769057D01*
X67004895Y-86769057D01*
X66869057Y-86904895D01*
X66869057Y-86904896D01*
X66869055Y-86904898D01*
X66820560Y-86971645D01*
X66756135Y-87060318D01*
X66668916Y-87231493D01*
X66609553Y-87414197D01*
X66579500Y-87603945D01*
X66579500Y-87796054D01*
X66609553Y-87985802D01*
X66668916Y-88168506D01*
X66668918Y-88168509D01*
X66756135Y-88339681D01*
X66869055Y-88495102D01*
X67004898Y-88630945D01*
X67160319Y-88743865D01*
X67331491Y-88831082D01*
X67331493Y-88831083D01*
X67422845Y-88860764D01*
X67514199Y-88890447D01*
X67703945Y-88920500D01*
X67703946Y-88920500D01*
X67896054Y-88920500D01*
X67896055Y-88920500D01*
X68085801Y-88890447D01*
X68268509Y-88831082D01*
X68439681Y-88743865D01*
X68595102Y-88630945D01*
X68730945Y-88495102D01*
X68843865Y-88339681D01*
X68931082Y-88168509D01*
X68990447Y-87985801D01*
X69020500Y-87796055D01*
X69020500Y-87796044D01*
X69020602Y-87794757D01*
X69020778Y-87794292D01*
X69021262Y-87791243D01*
X69021903Y-87791344D01*
X69045494Y-87729471D01*
X69101731Y-87688007D01*
X69144219Y-87680501D01*
X85897185Y-87680501D01*
X85964224Y-87700186D01*
X86009979Y-87752990D01*
X86019923Y-87822148D01*
X85997504Y-87877386D01*
X85967712Y-87918390D01*
X85874781Y-88100776D01*
X85811522Y-88295465D01*
X85779500Y-88497648D01*
X85779500Y-88702351D01*
X85811522Y-88904534D01*
X85874781Y-89099223D01*
X85938691Y-89224653D01*
X85967712Y-89281609D01*
X85967715Y-89281613D01*
X86088028Y-89447213D01*
X86232786Y-89591971D01*
X86387749Y-89704556D01*
X86398390Y-89712287D01*
X86514607Y-89771503D01*
X86580776Y-89805218D01*
X86580778Y-89805218D01*
X86580781Y-89805220D01*
X86685137Y-89839127D01*
X86775465Y-89868477D01*
X86876557Y-89884488D01*
X86977648Y-89900500D01*
X86977649Y-89900500D01*
X87182351Y-89900500D01*
X87182352Y-89900500D01*
X87384534Y-89868477D01*
X87579219Y-89805220D01*
X87761610Y-89712287D01*
X87854590Y-89644732D01*
X87927213Y-89591971D01*
X87927215Y-89591968D01*
X87927219Y-89591966D01*
X88071966Y-89447219D01*
X88071968Y-89447215D01*
X88071971Y-89447213D01*
X88124732Y-89374590D01*
X88192287Y-89281610D01*
X88285220Y-89099219D01*
X88348477Y-88904534D01*
X88380500Y-88702352D01*
X88380500Y-88497648D01*
X101019500Y-88497648D01*
X101019500Y-88702351D01*
X101051522Y-88904534D01*
X101114781Y-89099223D01*
X101178691Y-89224653D01*
X101207712Y-89281609D01*
X101207715Y-89281613D01*
X101328028Y-89447213D01*
X101472786Y-89591971D01*
X101627749Y-89704556D01*
X101638390Y-89712287D01*
X101754607Y-89771503D01*
X101820776Y-89805218D01*
X101820778Y-89805218D01*
X101820781Y-89805220D01*
X101925137Y-89839127D01*
X102015465Y-89868477D01*
X102116557Y-89884488D01*
X102217648Y-89900500D01*
X102217649Y-89900500D01*
X102422351Y-89900500D01*
X102422352Y-89900500D01*
X102624534Y-89868477D01*
X102819219Y-89805220D01*
X103001610Y-89712287D01*
X103094590Y-89644732D01*
X103167213Y-89591971D01*
X103167215Y-89591968D01*
X103167219Y-89591966D01*
X103261537Y-89497648D01*
X109499500Y-89497648D01*
X109499500Y-89702351D01*
X109531522Y-89904534D01*
X109594781Y-90099223D01*
X109687715Y-90281613D01*
X109808028Y-90447213D01*
X109952786Y-90591971D01*
X110082484Y-90686200D01*
X110118390Y-90712287D01*
X110234607Y-90771503D01*
X110300776Y-90805218D01*
X110300778Y-90805218D01*
X110300781Y-90805220D01*
X110405137Y-90839127D01*
X110495465Y-90868477D01*
X110592961Y-90883919D01*
X110697648Y-90900500D01*
X110697649Y-90900500D01*
X110902351Y-90900500D01*
X110902352Y-90900500D01*
X111104534Y-90868477D01*
X111299219Y-90805220D01*
X111481610Y-90712287D01*
X111616007Y-90614643D01*
X111647213Y-90591971D01*
X111647215Y-90591968D01*
X111647219Y-90591966D01*
X111791966Y-90447219D01*
X111791968Y-90447215D01*
X111791971Y-90447213D01*
X111876276Y-90331175D01*
X111912287Y-90281610D01*
X112005220Y-90099219D01*
X112068477Y-89904534D01*
X112100500Y-89702352D01*
X112100500Y-89497648D01*
X112068477Y-89295466D01*
X112005220Y-89100781D01*
X112005218Y-89100778D01*
X112005218Y-89100776D01*
X111971503Y-89034607D01*
X111912287Y-88918390D01*
X111902220Y-88904534D01*
X111791971Y-88752786D01*
X111647213Y-88608028D01*
X111481613Y-88487715D01*
X111481612Y-88487714D01*
X111481610Y-88487713D01*
X111424653Y-88458691D01*
X111299223Y-88394781D01*
X111104534Y-88331522D01*
X110929995Y-88303878D01*
X110902352Y-88299500D01*
X110697648Y-88299500D01*
X110673329Y-88303351D01*
X110495465Y-88331522D01*
X110300776Y-88394781D01*
X110118386Y-88487715D01*
X109952786Y-88608028D01*
X109808028Y-88752786D01*
X109687715Y-88918386D01*
X109594781Y-89100776D01*
X109531522Y-89295465D01*
X109499500Y-89497648D01*
X103261537Y-89497648D01*
X103311966Y-89447219D01*
X103432287Y-89281610D01*
X103525220Y-89099219D01*
X103588477Y-88904534D01*
X103620500Y-88702352D01*
X103620500Y-88497648D01*
X103588477Y-88295466D01*
X103525220Y-88100781D01*
X103525218Y-88100778D01*
X103525218Y-88100776D01*
X103466635Y-87985802D01*
X103432287Y-87918390D01*
X103362364Y-87822148D01*
X103311971Y-87752786D01*
X103167213Y-87608028D01*
X103001613Y-87487715D01*
X103001612Y-87487714D01*
X103001610Y-87487713D01*
X102944653Y-87458691D01*
X102819223Y-87394781D01*
X102624534Y-87331522D01*
X102449995Y-87303878D01*
X102422352Y-87299500D01*
X102217648Y-87299500D01*
X102193329Y-87303351D01*
X102015465Y-87331522D01*
X101820776Y-87394781D01*
X101638386Y-87487715D01*
X101472786Y-87608028D01*
X101328028Y-87752786D01*
X101207715Y-87918386D01*
X101114781Y-88100776D01*
X101051522Y-88295465D01*
X101019500Y-88497648D01*
X88380500Y-88497648D01*
X88348477Y-88295466D01*
X88285220Y-88100781D01*
X88285218Y-88100778D01*
X88285218Y-88100776D01*
X88192287Y-87918390D01*
X88162496Y-87877386D01*
X88139017Y-87811579D01*
X88154843Y-87743525D01*
X88204949Y-87694831D01*
X88262815Y-87680501D01*
X89448995Y-87680501D01*
X89540039Y-87662390D01*
X89584327Y-87653581D01*
X89694288Y-87608034D01*
X89711806Y-87600778D01*
X89711807Y-87600777D01*
X89711810Y-87600776D01*
X89826542Y-87524115D01*
X92852973Y-84497682D01*
X109500000Y-84497682D01*
X109500000Y-84702317D01*
X109532009Y-84904417D01*
X109595244Y-85099031D01*
X109688141Y-85281350D01*
X109688147Y-85281359D01*
X109720523Y-85325921D01*
X109720524Y-85325922D01*
X110400000Y-84646446D01*
X110400000Y-84652661D01*
X110427259Y-84754394D01*
X110479920Y-84845606D01*
X110554394Y-84920080D01*
X110645606Y-84972741D01*
X110747339Y-85000000D01*
X110753553Y-85000000D01*
X110074076Y-85679474D01*
X110118650Y-85711859D01*
X110300968Y-85804755D01*
X110495582Y-85867990D01*
X110697683Y-85900000D01*
X110902317Y-85900000D01*
X111104417Y-85867990D01*
X111299031Y-85804755D01*
X111481349Y-85711859D01*
X111525921Y-85679474D01*
X110846447Y-85000000D01*
X110852661Y-85000000D01*
X110954394Y-84972741D01*
X111045606Y-84920080D01*
X111120080Y-84845606D01*
X111172741Y-84754394D01*
X111200000Y-84652661D01*
X111200000Y-84646448D01*
X111879474Y-85325922D01*
X111879474Y-85325921D01*
X111911859Y-85281349D01*
X112004755Y-85099031D01*
X112067990Y-84904417D01*
X112100000Y-84702317D01*
X112100000Y-84497682D01*
X112067990Y-84295582D01*
X112004755Y-84100968D01*
X111911859Y-83918650D01*
X111879474Y-83874077D01*
X111879474Y-83874076D01*
X111200000Y-84553551D01*
X111200000Y-84547339D01*
X111172741Y-84445606D01*
X111120080Y-84354394D01*
X111045606Y-84279920D01*
X110954394Y-84227259D01*
X110852661Y-84200000D01*
X110846446Y-84200000D01*
X111525922Y-83520524D01*
X111525921Y-83520523D01*
X111481359Y-83488147D01*
X111481350Y-83488141D01*
X111299031Y-83395244D01*
X111104417Y-83332009D01*
X110902317Y-83300000D01*
X110697683Y-83300000D01*
X110495582Y-83332009D01*
X110300968Y-83395244D01*
X110118644Y-83488143D01*
X110074077Y-83520523D01*
X110074077Y-83520524D01*
X110753554Y-84200000D01*
X110747339Y-84200000D01*
X110645606Y-84227259D01*
X110554394Y-84279920D01*
X110479920Y-84354394D01*
X110427259Y-84445606D01*
X110400000Y-84547339D01*
X110400000Y-84553553D01*
X109720524Y-83874077D01*
X109720523Y-83874077D01*
X109688143Y-83918644D01*
X109595244Y-84100968D01*
X109532009Y-84295582D01*
X109500000Y-84497682D01*
X92852973Y-84497682D01*
X94133852Y-83216802D01*
X94195173Y-83183319D01*
X94240923Y-83182012D01*
X94357648Y-83200500D01*
X94357650Y-83200500D01*
X94562350Y-83200500D01*
X94562352Y-83200500D01*
X94679068Y-83182013D01*
X94748362Y-83190967D01*
X94786148Y-83216805D01*
X95140453Y-83571111D01*
X95140454Y-83571112D01*
X95255192Y-83647777D01*
X95382667Y-83700578D01*
X95382672Y-83700580D01*
X95382676Y-83700580D01*
X95382677Y-83700581D01*
X95518003Y-83727500D01*
X95518006Y-83727500D01*
X95518007Y-83727500D01*
X105533085Y-83727500D01*
X105594589Y-83745559D01*
X105595133Y-83744543D01*
X105600015Y-83747153D01*
X105600124Y-83747185D01*
X105600340Y-83747326D01*
X105600504Y-83747414D01*
X105752678Y-83810446D01*
X105753989Y-83810989D01*
X105902353Y-83840500D01*
X105916927Y-83843399D01*
X105916931Y-83843400D01*
X105916932Y-83843400D01*
X106083069Y-83843400D01*
X106083070Y-83843399D01*
X106246011Y-83810989D01*
X106364721Y-83761817D01*
X106399493Y-83747415D01*
X106399493Y-83747414D01*
X106399500Y-83747412D01*
X106537636Y-83655112D01*
X106655112Y-83537636D01*
X106666547Y-83520523D01*
X106681000Y-83498893D01*
X106681000Y-83498892D01*
X106705552Y-83462147D01*
X106747412Y-83399500D01*
X106810989Y-83246011D01*
X106843400Y-83083068D01*
X106843400Y-82916932D01*
X106810989Y-82753989D01*
X106759625Y-82629984D01*
X106747415Y-82600506D01*
X106747408Y-82600493D01*
X106655112Y-82462364D01*
X106655109Y-82462360D01*
X106537639Y-82344890D01*
X106537635Y-82344887D01*
X106399506Y-82252591D01*
X106399493Y-82252584D01*
X106246015Y-82189012D01*
X106246003Y-82189009D01*
X106083072Y-82156600D01*
X106083068Y-82156600D01*
X105916932Y-82156600D01*
X105916927Y-82156600D01*
X105753996Y-82189009D01*
X105753984Y-82189012D01*
X105600506Y-82252584D01*
X105600494Y-82252591D01*
X105521159Y-82305602D01*
X105454482Y-82326480D01*
X105452268Y-82326500D01*
X103473839Y-82326500D01*
X103406800Y-82306815D01*
X103361045Y-82254011D01*
X103351101Y-82184853D01*
X103351366Y-82183102D01*
X103380000Y-82002317D01*
X103380000Y-81797682D01*
X103347990Y-81595582D01*
X103284755Y-81400968D01*
X103191859Y-81218650D01*
X103103755Y-81097386D01*
X103080275Y-81031580D01*
X103096100Y-80963526D01*
X103146206Y-80914831D01*
X103204073Y-80900500D01*
X109638256Y-80900500D01*
X109705295Y-80920185D01*
X109738575Y-80951616D01*
X109808030Y-81047215D01*
X109952786Y-81191971D01*
X110107749Y-81304556D01*
X110118390Y-81312287D01*
X110227348Y-81367804D01*
X110300776Y-81405218D01*
X110300778Y-81405218D01*
X110300781Y-81405220D01*
X110405137Y-81439127D01*
X110495465Y-81468477D01*
X110527179Y-81473500D01*
X110697648Y-81500500D01*
X110697649Y-81500500D01*
X110902351Y-81500500D01*
X110902352Y-81500500D01*
X111104534Y-81468477D01*
X111299219Y-81405220D01*
X111481610Y-81312287D01*
X111574590Y-81244732D01*
X111647213Y-81191971D01*
X111647215Y-81191968D01*
X111647219Y-81191966D01*
X111791966Y-81047219D01*
X111791968Y-81047215D01*
X111791971Y-81047213D01*
X111861425Y-80951616D01*
X111912287Y-80881610D01*
X112005220Y-80699219D01*
X112068477Y-80504534D01*
X112100500Y-80302352D01*
X112100500Y-80097648D01*
X112099933Y-80094066D01*
X112068477Y-79895465D01*
X112005218Y-79700776D01*
X111969613Y-79630899D01*
X111912287Y-79518390D01*
X111872176Y-79463181D01*
X111791971Y-79352786D01*
X111647213Y-79208028D01*
X111481613Y-79087715D01*
X111481612Y-79087714D01*
X111481610Y-79087713D01*
X111424653Y-79058691D01*
X111299223Y-78994781D01*
X111104534Y-78931522D01*
X110929995Y-78903878D01*
X110902352Y-78899500D01*
X110697648Y-78899500D01*
X110673329Y-78903351D01*
X110495465Y-78931522D01*
X110300776Y-78994781D01*
X110118386Y-79087715D01*
X109952786Y-79208028D01*
X109808030Y-79352784D01*
X109738575Y-79448384D01*
X109683245Y-79491051D01*
X109638256Y-79499500D01*
X100721519Y-79499500D01*
X100654480Y-79479815D01*
X100633838Y-79463181D01*
X98412557Y-77241900D01*
X98379072Y-77180577D01*
X98384056Y-77110885D01*
X98425928Y-77054952D01*
X98491392Y-77030535D01*
X98500238Y-77030219D01*
X100099277Y-77030219D01*
X100190321Y-77012108D01*
X100234609Y-77003299D01*
X100362078Y-76950500D01*
X100362088Y-76950496D01*
X100362089Y-76950495D01*
X100362092Y-76950494D01*
X100476824Y-76873833D01*
X100714060Y-76636597D01*
X101206122Y-76144534D01*
X101254560Y-76096095D01*
X101753852Y-75596802D01*
X101815173Y-75563319D01*
X101860923Y-75562012D01*
X101977648Y-75580500D01*
X101977650Y-75580500D01*
X102182351Y-75580500D01*
X102182352Y-75580500D01*
X102384534Y-75548477D01*
X102579219Y-75485220D01*
X102761610Y-75392287D01*
X102860237Y-75320631D01*
X102927213Y-75271971D01*
X102927215Y-75271968D01*
X102927219Y-75271966D01*
X103071966Y-75127219D01*
X103093426Y-75097682D01*
X109500000Y-75097682D01*
X109500000Y-75302317D01*
X109532009Y-75504417D01*
X109595244Y-75699031D01*
X109688141Y-75881350D01*
X109688147Y-75881359D01*
X109720523Y-75925921D01*
X109720524Y-75925922D01*
X110400000Y-75246446D01*
X110400000Y-75252661D01*
X110427259Y-75354394D01*
X110479920Y-75445606D01*
X110554394Y-75520080D01*
X110645606Y-75572741D01*
X110747339Y-75600000D01*
X110753553Y-75600000D01*
X110074076Y-76279474D01*
X110118650Y-76311859D01*
X110300968Y-76404755D01*
X110495582Y-76467990D01*
X110697683Y-76500000D01*
X110902317Y-76500000D01*
X111104417Y-76467990D01*
X111299031Y-76404755D01*
X111481349Y-76311859D01*
X111525921Y-76279474D01*
X110846447Y-75600000D01*
X110852661Y-75600000D01*
X110954394Y-75572741D01*
X111045606Y-75520080D01*
X111120080Y-75445606D01*
X111172741Y-75354394D01*
X111200000Y-75252661D01*
X111200000Y-75246448D01*
X111879474Y-75925922D01*
X111879474Y-75925921D01*
X111911859Y-75881349D01*
X112004755Y-75699031D01*
X112067990Y-75504417D01*
X112100000Y-75302317D01*
X112100000Y-75097682D01*
X112067990Y-74895582D01*
X112004755Y-74700968D01*
X111911859Y-74518650D01*
X111879474Y-74474077D01*
X111879474Y-74474076D01*
X111200000Y-75153551D01*
X111200000Y-75147339D01*
X111172741Y-75045606D01*
X111120080Y-74954394D01*
X111045606Y-74879920D01*
X110954394Y-74827259D01*
X110852661Y-74800000D01*
X110846446Y-74800000D01*
X111525922Y-74120524D01*
X111525921Y-74120523D01*
X111481359Y-74088147D01*
X111481350Y-74088141D01*
X111299031Y-73995244D01*
X111104417Y-73932009D01*
X110902317Y-73900000D01*
X110697683Y-73900000D01*
X110495582Y-73932009D01*
X110300968Y-73995244D01*
X110118644Y-74088143D01*
X110074077Y-74120523D01*
X110074077Y-74120524D01*
X110753554Y-74800000D01*
X110747339Y-74800000D01*
X110645606Y-74827259D01*
X110554394Y-74879920D01*
X110479920Y-74954394D01*
X110427259Y-75045606D01*
X110400000Y-75147339D01*
X110400000Y-75153553D01*
X109720524Y-74474077D01*
X109720523Y-74474077D01*
X109688143Y-74518644D01*
X109595244Y-74700968D01*
X109532009Y-74895582D01*
X109500000Y-75097682D01*
X103093426Y-75097682D01*
X103192287Y-74961610D01*
X103285220Y-74779219D01*
X103348477Y-74584534D01*
X103380500Y-74382352D01*
X103380500Y-74177648D01*
X103348477Y-73975466D01*
X103285220Y-73780781D01*
X103285218Y-73780778D01*
X103285218Y-73780776D01*
X103239309Y-73690676D01*
X103192287Y-73598390D01*
X103184556Y-73587749D01*
X103071971Y-73432786D01*
X102927213Y-73288028D01*
X102761613Y-73167715D01*
X102761612Y-73167714D01*
X102761610Y-73167713D01*
X102704653Y-73138691D01*
X102579223Y-73074781D01*
X102384534Y-73011522D01*
X102196665Y-72981767D01*
X102182352Y-72979500D01*
X101977648Y-72979500D01*
X101963335Y-72981767D01*
X101775465Y-73011522D01*
X101580776Y-73074781D01*
X101398386Y-73167715D01*
X101232786Y-73288028D01*
X101088028Y-73432786D01*
X100967715Y-73598386D01*
X100920485Y-73691080D01*
X100872510Y-73741876D01*
X100804689Y-73758671D01*
X100738554Y-73736134D01*
X100699515Y-73691080D01*
X100698883Y-73689840D01*
X100652287Y-73598390D01*
X100644556Y-73587749D01*
X100531971Y-73432786D01*
X100387213Y-73288028D01*
X100221613Y-73167715D01*
X100221612Y-73167714D01*
X100221610Y-73167713D01*
X100164653Y-73138691D01*
X100039223Y-73074781D01*
X99844534Y-73011522D01*
X99656665Y-72981767D01*
X99642352Y-72979500D01*
X99590519Y-72979500D01*
X99569273Y-72973261D01*
X99547185Y-72971682D01*
X99536401Y-72963609D01*
X99523480Y-72959815D01*
X99508980Y-72943081D01*
X99491252Y-72929810D01*
X99486544Y-72917189D01*
X99477725Y-72907011D01*
X99474573Y-72885093D01*
X99466835Y-72864346D01*
X99469697Y-72851185D01*
X99467781Y-72837853D01*
X99476980Y-72817709D01*
X99481687Y-72796073D01*
X99494955Y-72778347D01*
X99496806Y-72774297D01*
X99502838Y-72767819D01*
X99533838Y-72736819D01*
X99595161Y-72703334D01*
X99621519Y-72700500D01*
X105492677Y-72700500D01*
X105559716Y-72720185D01*
X105561554Y-72721388D01*
X105600500Y-72747412D01*
X105600503Y-72747413D01*
X105600504Y-72747414D01*
X105708954Y-72792335D01*
X105753989Y-72810989D01*
X105889045Y-72837853D01*
X105916927Y-72843399D01*
X105916931Y-72843400D01*
X105916932Y-72843400D01*
X106083069Y-72843400D01*
X106083070Y-72843399D01*
X106246011Y-72810989D01*
X106399500Y-72747412D01*
X106537636Y-72655112D01*
X106655112Y-72537636D01*
X106747412Y-72399500D01*
X106810989Y-72246011D01*
X106843400Y-72083068D01*
X106843400Y-71916932D01*
X106810989Y-71753989D01*
X106753689Y-71615654D01*
X106747415Y-71600506D01*
X106747408Y-71600493D01*
X106655112Y-71462364D01*
X106655109Y-71462360D01*
X106537639Y-71344890D01*
X106537635Y-71344887D01*
X106399506Y-71252591D01*
X106399493Y-71252584D01*
X106246015Y-71189012D01*
X106246003Y-71189009D01*
X106083072Y-71156600D01*
X106083068Y-71156600D01*
X105916932Y-71156600D01*
X105916927Y-71156600D01*
X105753996Y-71189009D01*
X105753984Y-71189012D01*
X105600504Y-71252585D01*
X105600503Y-71252586D01*
X105561568Y-71278602D01*
X105494891Y-71299480D01*
X105492677Y-71299500D01*
X99211004Y-71299500D01*
X99075677Y-71326418D01*
X99075667Y-71326421D01*
X98948192Y-71379222D01*
X98833454Y-71455887D01*
X97326147Y-72963194D01*
X97264824Y-72996679D01*
X97219068Y-72997986D01*
X97148322Y-72986781D01*
X97102352Y-72979500D01*
X96897648Y-72979500D01*
X96883335Y-72981767D01*
X96695465Y-73011522D01*
X96500776Y-73074781D01*
X96318386Y-73167715D01*
X96152786Y-73288028D01*
X96008028Y-73432786D01*
X95887715Y-73598386D01*
X95840485Y-73691080D01*
X95792510Y-73741876D01*
X95724689Y-73758671D01*
X95658554Y-73736134D01*
X95619515Y-73691080D01*
X95618883Y-73689840D01*
X95572287Y-73598390D01*
X95564556Y-73587749D01*
X95451971Y-73432786D01*
X95307213Y-73288028D01*
X95141613Y-73167715D01*
X95141612Y-73167714D01*
X95141610Y-73167713D01*
X95084653Y-73138691D01*
X94959223Y-73074781D01*
X94802509Y-73023861D01*
X94744834Y-72984423D01*
X94717636Y-72920064D01*
X94729551Y-72851218D01*
X94776796Y-72799742D01*
X94793361Y-72791375D01*
X94899500Y-72747412D01*
X95037636Y-72655112D01*
X95155112Y-72537636D01*
X95247412Y-72399500D01*
X95310989Y-72246011D01*
X95343400Y-72083068D01*
X95343400Y-71916932D01*
X95310989Y-71753989D01*
X95253689Y-71615654D01*
X95247415Y-71600506D01*
X95247408Y-71600493D01*
X95155112Y-71462364D01*
X95155109Y-71462360D01*
X95037639Y-71344890D01*
X95037635Y-71344887D01*
X94899506Y-71252591D01*
X94899493Y-71252584D01*
X94746015Y-71189012D01*
X94746003Y-71189009D01*
X94583072Y-71156600D01*
X94583068Y-71156600D01*
X94416932Y-71156600D01*
X94416927Y-71156600D01*
X94253996Y-71189009D01*
X94253984Y-71189012D01*
X94100504Y-71252585D01*
X94100503Y-71252586D01*
X94061568Y-71278602D01*
X93994891Y-71299480D01*
X93992677Y-71299500D01*
X91507323Y-71299500D01*
X91440284Y-71279815D01*
X91438432Y-71278602D01*
X91399500Y-71252588D01*
X91399497Y-71252586D01*
X91399496Y-71252586D01*
X91399495Y-71252585D01*
X91246015Y-71189012D01*
X91246003Y-71189009D01*
X91083072Y-71156600D01*
X91083068Y-71156600D01*
X90916932Y-71156600D01*
X90916927Y-71156600D01*
X90753996Y-71189009D01*
X90753984Y-71189012D01*
X90600506Y-71252584D01*
X90600493Y-71252591D01*
X90462364Y-71344887D01*
X90462360Y-71344890D01*
X90344890Y-71462360D01*
X90344886Y-71462365D01*
X90327944Y-71487720D01*
X90274331Y-71532523D01*
X90205005Y-71541229D01*
X90141979Y-71511072D01*
X90137163Y-71506507D01*
X89026348Y-70395692D01*
X87847219Y-69216562D01*
X86111114Y-67480457D01*
X86028305Y-67397648D01*
X89139500Y-67397648D01*
X89139500Y-67602351D01*
X89171522Y-67804534D01*
X89234781Y-67999223D01*
X89327715Y-68181613D01*
X89448028Y-68347213D01*
X89592786Y-68491971D01*
X89747749Y-68604556D01*
X89758390Y-68612287D01*
X89874607Y-68671503D01*
X89940776Y-68705218D01*
X89940778Y-68705218D01*
X89940781Y-68705220D01*
X89991754Y-68721782D01*
X90135465Y-68768477D01*
X90236557Y-68784488D01*
X90337648Y-68800500D01*
X90337649Y-68800500D01*
X90542351Y-68800500D01*
X90542352Y-68800500D01*
X90744534Y-68768477D01*
X90939219Y-68705220D01*
X91121610Y-68612287D01*
X91214590Y-68544732D01*
X91287213Y-68491971D01*
X91287215Y-68491968D01*
X91287219Y-68491966D01*
X91431966Y-68347219D01*
X91431968Y-68347215D01*
X91431971Y-68347213D01*
X91484732Y-68274590D01*
X91552287Y-68181610D01*
X91645220Y-67999219D01*
X91708477Y-67804534D01*
X91740500Y-67602352D01*
X91740500Y-67397648D01*
X99299500Y-67397648D01*
X99299500Y-67602351D01*
X99331522Y-67804534D01*
X99394781Y-67999223D01*
X99487715Y-68181613D01*
X99608028Y-68347213D01*
X99752786Y-68491971D01*
X99907749Y-68604556D01*
X99918390Y-68612287D01*
X100034607Y-68671503D01*
X100100776Y-68705218D01*
X100100778Y-68705218D01*
X100100781Y-68705220D01*
X100151754Y-68721782D01*
X100295465Y-68768477D01*
X100396557Y-68784488D01*
X100497648Y-68800500D01*
X100497649Y-68800500D01*
X100702351Y-68800500D01*
X100702352Y-68800500D01*
X100904534Y-68768477D01*
X101099219Y-68705220D01*
X101281610Y-68612287D01*
X101374590Y-68544732D01*
X101447213Y-68491971D01*
X101447215Y-68491968D01*
X101447219Y-68491966D01*
X101591966Y-68347219D01*
X101591968Y-68347215D01*
X101591971Y-68347213D01*
X101644732Y-68274590D01*
X101712287Y-68181610D01*
X101805220Y-67999219D01*
X101868477Y-67804534D01*
X101900500Y-67602352D01*
X101900500Y-67397648D01*
X101868477Y-67195466D01*
X101805220Y-67000781D01*
X101805218Y-67000778D01*
X101805218Y-67000776D01*
X101771503Y-66934607D01*
X101712287Y-66818390D01*
X101704556Y-66807749D01*
X101591971Y-66652786D01*
X101447213Y-66508028D01*
X101281613Y-66387715D01*
X101281612Y-66387714D01*
X101281610Y-66387713D01*
X101224653Y-66358691D01*
X101099223Y-66294781D01*
X100904534Y-66231522D01*
X100729995Y-66203878D01*
X100702352Y-66199500D01*
X100497648Y-66199500D01*
X100473329Y-66203351D01*
X100295465Y-66231522D01*
X100100776Y-66294781D01*
X99918386Y-66387715D01*
X99752786Y-66508028D01*
X99608028Y-66652786D01*
X99487715Y-66818386D01*
X99394781Y-67000776D01*
X99331522Y-67195465D01*
X99299500Y-67397648D01*
X91740500Y-67397648D01*
X91708477Y-67195466D01*
X91645220Y-67000781D01*
X91645218Y-67000778D01*
X91645218Y-67000776D01*
X91611503Y-66934607D01*
X91552287Y-66818390D01*
X91544556Y-66807749D01*
X91431971Y-66652786D01*
X91287213Y-66508028D01*
X91121613Y-66387715D01*
X91121612Y-66387714D01*
X91121610Y-66387713D01*
X91064653Y-66358691D01*
X90939223Y-66294781D01*
X90744534Y-66231522D01*
X90569995Y-66203878D01*
X90542352Y-66199500D01*
X90337648Y-66199500D01*
X90313329Y-66203351D01*
X90135465Y-66231522D01*
X89940776Y-66294781D01*
X89758386Y-66387715D01*
X89592786Y-66508028D01*
X89448028Y-66652786D01*
X89327715Y-66818386D01*
X89234781Y-67000776D01*
X89171522Y-67195465D01*
X89139500Y-67397648D01*
X86028305Y-67397648D01*
X75006546Y-56375888D01*
X75006545Y-56375887D01*
X74891807Y-56299222D01*
X74764332Y-56246421D01*
X74764322Y-56246418D01*
X74628996Y-56219500D01*
X74628994Y-56219500D01*
X74628993Y-56219500D01*
X69462859Y-56219500D01*
X69395820Y-56199815D01*
X69362541Y-56168385D01*
X69330950Y-56124904D01*
X69330946Y-56124899D01*
X69195104Y-55989057D01*
X69195102Y-55989055D01*
X69039681Y-55876135D01*
X68868506Y-55788916D01*
X68685802Y-55729553D01*
X68590928Y-55714526D01*
X68496055Y-55699500D01*
X68303945Y-55699500D01*
X68240696Y-55709517D01*
X68114197Y-55729553D01*
X67931493Y-55788916D01*
X67760318Y-55876135D01*
X67671645Y-55940560D01*
X67604898Y-55989055D01*
X67604896Y-55989057D01*
X67604895Y-55989057D01*
X67469057Y-56124895D01*
X67469057Y-56124896D01*
X67469055Y-56124898D01*
X67469051Y-56124904D01*
X67356135Y-56280318D01*
X67268916Y-56451493D01*
X67209553Y-56634197D01*
X67179500Y-56823945D01*
X67179500Y-57016054D01*
X67209553Y-57205802D01*
X67268916Y-57388506D01*
X67268918Y-57388509D01*
X67356135Y-57559681D01*
X67469055Y-57715102D01*
X67604898Y-57850945D01*
X67760319Y-57963865D01*
X67931491Y-58051082D01*
X67931493Y-58051083D01*
X67992171Y-58070798D01*
X68114199Y-58110447D01*
X68303945Y-58140500D01*
X68303946Y-58140500D01*
X68496054Y-58140500D01*
X68496055Y-58140500D01*
X68685801Y-58110447D01*
X68868509Y-58051082D01*
X69039681Y-57963865D01*
X69195102Y-57850945D01*
X69330945Y-57715102D01*
X69337820Y-57705640D01*
X69362541Y-57671615D01*
X69417871Y-57628949D01*
X69462859Y-57620500D01*
X74218481Y-57620500D01*
X74285520Y-57640185D01*
X74306162Y-57656819D01*
X81941882Y-65292539D01*
X89417163Y-72767819D01*
X89424695Y-72781613D01*
X89436188Y-72792335D01*
X89441097Y-72811650D01*
X89450648Y-72829142D01*
X89449526Y-72844819D01*
X89453398Y-72860052D01*
X89447085Y-72878953D01*
X89445664Y-72898834D01*
X89436244Y-72911416D01*
X89431266Y-72926324D01*
X89415734Y-72938813D01*
X89403792Y-72954767D01*
X89388354Y-72960831D01*
X89376818Y-72970109D01*
X89352420Y-72974949D01*
X89342611Y-72978803D01*
X89336065Y-72979500D01*
X89277648Y-72979500D01*
X89157806Y-72998481D01*
X89154661Y-72998816D01*
X89123270Y-72993119D01*
X89091636Y-72989031D01*
X89088345Y-72986781D01*
X89085915Y-72986340D01*
X89081014Y-72981767D01*
X89053851Y-72963194D01*
X75006546Y-58915888D01*
X75006545Y-58915887D01*
X74891807Y-58839222D01*
X74764332Y-58786421D01*
X74764322Y-58786418D01*
X74628996Y-58759500D01*
X74628994Y-58759500D01*
X74628993Y-58759500D01*
X72002859Y-58759500D01*
X71935820Y-58739815D01*
X71902541Y-58708385D01*
X71870950Y-58664904D01*
X71870946Y-58664899D01*
X71735104Y-58529057D01*
X71735102Y-58529055D01*
X71579681Y-58416135D01*
X71456860Y-58353554D01*
X71408506Y-58328916D01*
X71225802Y-58269553D01*
X71130928Y-58254526D01*
X71036055Y-58239500D01*
X70843945Y-58239500D01*
X70780696Y-58249517D01*
X70654197Y-58269553D01*
X70471493Y-58328916D01*
X70300318Y-58416135D01*
X70231789Y-58465925D01*
X70144898Y-58529055D01*
X70144896Y-58529057D01*
X70144895Y-58529057D01*
X70009057Y-58664895D01*
X70009057Y-58664896D01*
X70009055Y-58664898D01*
X69978064Y-58707554D01*
X69896135Y-58820318D01*
X69808916Y-58991493D01*
X69749553Y-59174197D01*
X69719500Y-59363945D01*
X69719500Y-59556054D01*
X69749553Y-59745802D01*
X69808916Y-59928506D01*
X69808918Y-59928509D01*
X69896135Y-60099681D01*
X70009055Y-60255102D01*
X70144898Y-60390945D01*
X70300319Y-60503865D01*
X70471491Y-60591082D01*
X70471493Y-60591083D01*
X70562845Y-60620764D01*
X70654199Y-60650447D01*
X70843945Y-60680500D01*
X70843946Y-60680500D01*
X71036054Y-60680500D01*
X71036055Y-60680500D01*
X71225801Y-60650447D01*
X71408509Y-60591082D01*
X71579681Y-60503865D01*
X71735102Y-60390945D01*
X71870945Y-60255102D01*
X71873404Y-60251716D01*
X71902541Y-60211615D01*
X71957871Y-60168949D01*
X72002859Y-60160500D01*
X74218481Y-60160500D01*
X74285520Y-60180185D01*
X74306162Y-60196819D01*
X86877162Y-72767819D01*
X86884694Y-72781613D01*
X86896187Y-72792335D01*
X86901096Y-72811650D01*
X86910647Y-72829142D01*
X86909525Y-72844819D01*
X86913397Y-72860052D01*
X86907084Y-72878953D01*
X86905663Y-72898834D01*
X86896243Y-72911416D01*
X86891265Y-72926324D01*
X86875733Y-72938813D01*
X86863791Y-72954767D01*
X86848353Y-72960831D01*
X86836817Y-72970109D01*
X86812419Y-72974949D01*
X86802610Y-72978803D01*
X86796064Y-72979500D01*
X86737648Y-72979500D01*
X86617806Y-72998481D01*
X86614661Y-72998816D01*
X86583270Y-72993119D01*
X86551636Y-72989031D01*
X86548345Y-72986781D01*
X86545915Y-72986340D01*
X86541014Y-72981767D01*
X86513851Y-72963194D01*
X75006546Y-61455888D01*
X75006545Y-61455887D01*
X74891807Y-61379222D01*
X74764332Y-61326421D01*
X74764322Y-61326418D01*
X74628996Y-61299500D01*
X74628994Y-61299500D01*
X74628993Y-61299500D01*
X69462859Y-61299500D01*
X69395820Y-61279815D01*
X69362541Y-61248385D01*
X69330950Y-61204904D01*
X69330946Y-61204899D01*
X69195104Y-61069057D01*
X69195102Y-61069055D01*
X69039681Y-60956135D01*
X68868506Y-60868916D01*
X68685802Y-60809553D01*
X68590928Y-60794526D01*
X68496055Y-60779500D01*
X68303945Y-60779500D01*
X68240696Y-60789517D01*
X68114197Y-60809553D01*
X67931493Y-60868916D01*
X67760318Y-60956135D01*
X67671645Y-61020560D01*
X67604898Y-61069055D01*
X67604896Y-61069057D01*
X67604895Y-61069057D01*
X67469057Y-61204895D01*
X67469057Y-61204896D01*
X67469055Y-61204898D01*
X67469051Y-61204904D01*
X67356135Y-61360318D01*
X67268916Y-61531493D01*
X67209553Y-61714197D01*
X67179500Y-61903945D01*
X67179500Y-62096054D01*
X67209553Y-62285802D01*
X67268916Y-62468506D01*
X67268918Y-62468509D01*
X67356135Y-62639681D01*
X67469055Y-62795102D01*
X67604898Y-62930945D01*
X67760319Y-63043865D01*
X67931491Y-63131082D01*
X67931493Y-63131083D01*
X68022845Y-63160764D01*
X68114199Y-63190447D01*
X68303945Y-63220500D01*
X68303946Y-63220500D01*
X68496054Y-63220500D01*
X68496055Y-63220500D01*
X68685801Y-63190447D01*
X68868509Y-63131082D01*
X69039681Y-63043865D01*
X69195102Y-62930945D01*
X69330945Y-62795102D01*
X69333404Y-62791716D01*
X69362541Y-62751615D01*
X69417871Y-62708949D01*
X69462859Y-62700500D01*
X74218481Y-62700500D01*
X74285520Y-62720185D01*
X74306162Y-62736819D01*
X85523194Y-73953851D01*
X85556679Y-74015174D01*
X85557986Y-74060929D01*
X85539500Y-74177647D01*
X85539500Y-74382351D01*
X85571522Y-74584534D01*
X85634781Y-74779223D01*
X85694070Y-74895582D01*
X85724036Y-74954394D01*
X85727715Y-74961613D01*
X85848028Y-75127213D01*
X85992786Y-75271971D01*
X86127362Y-75369744D01*
X86158390Y-75392287D01*
X86236761Y-75432219D01*
X86340776Y-75485218D01*
X86340778Y-75485218D01*
X86340781Y-75485220D01*
X86418671Y-75510528D01*
X86535465Y-75548477D01*
X86620921Y-75562012D01*
X86737648Y-75580500D01*
X86737649Y-75580500D01*
X86942351Y-75580500D01*
X86942352Y-75580500D01*
X87144534Y-75548477D01*
X87339219Y-75485220D01*
X87521610Y-75392287D01*
X87620237Y-75320631D01*
X87687213Y-75271971D01*
X87687215Y-75271968D01*
X87687219Y-75271966D01*
X87831966Y-75127219D01*
X87831968Y-75127215D01*
X87831971Y-75127213D01*
X87952284Y-74961614D01*
X87952285Y-74961613D01*
X87952287Y-74961610D01*
X87999516Y-74868917D01*
X88047489Y-74818123D01*
X88115310Y-74801328D01*
X88181445Y-74823865D01*
X88220485Y-74868919D01*
X88267715Y-74961614D01*
X88388028Y-75127213D01*
X88532786Y-75271971D01*
X88667362Y-75369744D01*
X88698390Y-75392287D01*
X88776761Y-75432219D01*
X88880776Y-75485218D01*
X88880778Y-75485218D01*
X88880781Y-75485220D01*
X88958671Y-75510528D01*
X89075465Y-75548477D01*
X89160921Y-75562012D01*
X89277648Y-75580500D01*
X89277649Y-75580500D01*
X89482351Y-75580500D01*
X89482352Y-75580500D01*
X89684534Y-75548477D01*
X89879219Y-75485220D01*
X90061610Y-75392287D01*
X90160237Y-75320631D01*
X90227213Y-75271971D01*
X90227215Y-75271968D01*
X90227219Y-75271966D01*
X90371966Y-75127219D01*
X90371968Y-75127215D01*
X90371971Y-75127213D01*
X90492284Y-74961614D01*
X90492285Y-74961613D01*
X90492287Y-74961610D01*
X90539516Y-74868917D01*
X90587489Y-74818123D01*
X90655310Y-74801328D01*
X90721445Y-74823865D01*
X90760485Y-74868919D01*
X90807715Y-74961614D01*
X90928028Y-75127213D01*
X91072786Y-75271971D01*
X91207362Y-75369744D01*
X91238390Y-75392287D01*
X91316761Y-75432219D01*
X91420776Y-75485218D01*
X91420778Y-75485218D01*
X91420781Y-75485220D01*
X91498671Y-75510528D01*
X91615465Y-75548477D01*
X91700921Y-75562012D01*
X91817648Y-75580500D01*
X91817649Y-75580500D01*
X92022351Y-75580500D01*
X92022352Y-75580500D01*
X92224534Y-75548477D01*
X92419219Y-75485220D01*
X92601610Y-75392287D01*
X92689702Y-75328284D01*
X92755505Y-75304806D01*
X92823559Y-75320631D01*
X92850266Y-75340923D01*
X94145940Y-76636597D01*
X94179425Y-76697920D01*
X94179864Y-76700027D01*
X94189011Y-76746011D01*
X94189012Y-76746015D01*
X94252584Y-76899493D01*
X94252591Y-76899506D01*
X94344887Y-77037635D01*
X94344890Y-77037639D01*
X94462360Y-77155109D01*
X94462364Y-77155112D01*
X94600493Y-77247408D01*
X94600506Y-77247415D01*
X94753984Y-77310987D01*
X94753989Y-77310989D01*
X94916927Y-77343399D01*
X94916931Y-77343400D01*
X94916932Y-77343400D01*
X95083069Y-77343400D01*
X95083070Y-77343399D01*
X95246011Y-77310989D01*
X95399500Y-77247412D01*
X95537636Y-77155112D01*
X95655112Y-77037636D01*
X95747412Y-76899500D01*
X95776398Y-76829521D01*
X95820235Y-76775121D01*
X95886529Y-76753055D01*
X95954229Y-76770333D01*
X95978638Y-76789295D01*
X99577162Y-80387819D01*
X99584694Y-80401613D01*
X99596187Y-80412335D01*
X99601096Y-80431650D01*
X99610647Y-80449142D01*
X99609525Y-80464819D01*
X99613397Y-80480052D01*
X99607084Y-80498953D01*
X99605663Y-80518834D01*
X99596243Y-80531416D01*
X99591265Y-80546324D01*
X99575733Y-80558813D01*
X99563791Y-80574767D01*
X99548353Y-80580831D01*
X99536817Y-80590109D01*
X99512419Y-80594949D01*
X99502610Y-80598803D01*
X99496064Y-80599500D01*
X99437648Y-80599500D01*
X99317806Y-80618481D01*
X99314661Y-80618816D01*
X99283270Y-80613119D01*
X99251636Y-80609031D01*
X99248345Y-80606781D01*
X99245915Y-80606340D01*
X99241014Y-80601767D01*
X99213851Y-80583194D01*
X98859546Y-80228888D01*
X98859545Y-80228887D01*
X98744807Y-80152222D01*
X98617332Y-80099421D01*
X98617322Y-80099418D01*
X98481996Y-80072500D01*
X98481994Y-80072500D01*
X98481993Y-80072500D01*
X90575994Y-80072500D01*
X90438006Y-80072500D01*
X90438004Y-80072500D01*
X90302677Y-80099418D01*
X90302667Y-80099421D01*
X90175192Y-80152222D01*
X90060454Y-80228887D01*
X89706147Y-80583194D01*
X89644824Y-80616679D01*
X89599068Y-80617986D01*
X89528322Y-80606781D01*
X89482352Y-80599500D01*
X89277648Y-80599500D01*
X89160929Y-80617986D01*
X89091636Y-80609031D01*
X89053851Y-80583194D01*
X88699546Y-80228888D01*
X88699545Y-80228887D01*
X88584807Y-80152222D01*
X88457332Y-80099421D01*
X88457322Y-80099418D01*
X88321996Y-80072500D01*
X88321994Y-80072500D01*
X88321993Y-80072500D01*
X85975079Y-80072500D01*
X85975075Y-80072500D01*
X85866662Y-80094065D01*
X85866661Y-80094065D01*
X85850451Y-80097289D01*
X85839741Y-80099420D01*
X85811040Y-80111309D01*
X85712260Y-80152225D01*
X85712260Y-80152226D01*
X85597528Y-80228886D01*
X85597525Y-80228889D01*
X83943234Y-81883181D01*
X83881911Y-81916666D01*
X83855553Y-81919500D01*
X79910431Y-81919500D01*
X79843392Y-81899815D01*
X79797637Y-81847011D01*
X79786813Y-81785771D01*
X79790125Y-81743677D01*
X79121448Y-81075000D01*
X79149370Y-81075000D01*
X79244745Y-81049444D01*
X79330255Y-81000075D01*
X79400075Y-80930255D01*
X79449444Y-80844745D01*
X79475000Y-80749370D01*
X79475000Y-80721447D01*
X80143678Y-81390126D01*
X80143678Y-81390125D01*
X80169095Y-81355143D01*
X80258418Y-81179835D01*
X80319221Y-80992705D01*
X80350000Y-80798382D01*
X80350000Y-80601617D01*
X80319221Y-80407294D01*
X80258418Y-80220164D01*
X80169096Y-80044858D01*
X80143678Y-80009873D01*
X80143677Y-80009873D01*
X79475000Y-80678551D01*
X79475000Y-80650630D01*
X79449444Y-80555255D01*
X79400075Y-80469745D01*
X79330255Y-80399925D01*
X79244745Y-80350556D01*
X79149370Y-80325000D01*
X79121447Y-80325000D01*
X79790125Y-79656320D01*
X79790125Y-79656319D01*
X79755145Y-79630905D01*
X79579835Y-79541581D01*
X79392705Y-79480778D01*
X79198382Y-79450000D01*
X79001618Y-79450000D01*
X78807294Y-79480778D01*
X78620161Y-79541582D01*
X78444863Y-79630899D01*
X78444859Y-79630902D01*
X78409873Y-79656320D01*
X78409872Y-79656320D01*
X79078554Y-80325000D01*
X79050630Y-80325000D01*
X78955255Y-80350556D01*
X78869745Y-80399925D01*
X78799925Y-80469745D01*
X78750556Y-80555255D01*
X78725000Y-80650630D01*
X78725000Y-80678552D01*
X78056320Y-80009872D01*
X78056320Y-80009873D01*
X78030902Y-80044859D01*
X78030899Y-80044863D01*
X77941582Y-80220161D01*
X77880778Y-80407294D01*
X77850000Y-80601617D01*
X77850000Y-80798382D01*
X77880778Y-80992705D01*
X77941581Y-81179835D01*
X78030905Y-81355145D01*
X78056319Y-81390125D01*
X78056320Y-81390125D01*
X78725000Y-80721445D01*
X78725000Y-80749370D01*
X78750556Y-80844745D01*
X78799925Y-80930255D01*
X78869745Y-81000075D01*
X78955255Y-81049444D01*
X79050630Y-81075000D01*
X79078553Y-81075000D01*
X78409873Y-81743677D01*
X78413186Y-81785771D01*
X78398822Y-81854148D01*
X78349771Y-81903905D01*
X78289568Y-81919500D01*
X68862859Y-81919500D01*
X68795820Y-81899815D01*
X68762541Y-81868385D01*
X68730950Y-81824904D01*
X68730946Y-81824899D01*
X68595104Y-81689057D01*
X68595102Y-81689055D01*
X68439681Y-81576135D01*
X68268506Y-81488916D01*
X68085802Y-81429553D01*
X67932169Y-81405220D01*
X67896055Y-81399500D01*
X67703945Y-81399500D01*
X67667831Y-81405220D01*
X67514197Y-81429553D01*
X67331493Y-81488916D01*
X67160318Y-81576135D01*
X67120478Y-81605081D01*
X67004898Y-81689055D01*
X67004896Y-81689057D01*
X67004895Y-81689057D01*
X66869057Y-81824895D01*
X66869057Y-81824896D01*
X66869055Y-81824898D01*
X66869051Y-81824904D01*
X66756135Y-81980318D01*
X66668916Y-82151493D01*
X66609553Y-82334197D01*
X66579500Y-82523945D01*
X58500500Y-82523945D01*
X58500500Y-75601577D01*
X77849500Y-75601577D01*
X77849500Y-75798422D01*
X77880290Y-75992826D01*
X77941117Y-76180029D01*
X77991787Y-76279474D01*
X78030476Y-76355405D01*
X78146172Y-76514646D01*
X78285354Y-76653828D01*
X78444595Y-76769524D01*
X78527455Y-76811743D01*
X78619970Y-76858882D01*
X78619972Y-76858882D01*
X78619975Y-76858884D01*
X78720317Y-76891487D01*
X78807173Y-76919709D01*
X79001578Y-76950500D01*
X79001583Y-76950500D01*
X79198422Y-76950500D01*
X79392826Y-76919709D01*
X79580025Y-76858884D01*
X79755405Y-76769524D01*
X79914646Y-76653828D01*
X80053828Y-76514646D01*
X80169524Y-76355405D01*
X80258884Y-76180025D01*
X80319709Y-75992826D01*
X80350500Y-75798422D01*
X80350500Y-75601577D01*
X80319709Y-75407173D01*
X80285639Y-75302317D01*
X80258884Y-75219975D01*
X80258882Y-75219972D01*
X80258882Y-75219970D01*
X80169523Y-75044594D01*
X80109234Y-74961614D01*
X80053828Y-74885354D01*
X79914646Y-74746172D01*
X79755405Y-74630476D01*
X79580029Y-74541117D01*
X79392826Y-74480290D01*
X79198422Y-74449500D01*
X79198417Y-74449500D01*
X79001583Y-74449500D01*
X79001578Y-74449500D01*
X78807173Y-74480290D01*
X78619970Y-74541117D01*
X78444594Y-74630476D01*
X78353741Y-74696485D01*
X78285354Y-74746172D01*
X78285352Y-74746174D01*
X78285351Y-74746174D01*
X78146174Y-74885351D01*
X78146174Y-74885352D01*
X78146172Y-74885354D01*
X78138741Y-74895582D01*
X78030476Y-75044594D01*
X77941117Y-75219970D01*
X77880290Y-75407173D01*
X77849500Y-75601577D01*
X58500500Y-75601577D01*
X58500500Y-73143640D01*
X59603798Y-73143640D01*
X76845651Y-73143640D01*
X76845651Y-70001255D01*
X59603798Y-70001255D01*
X59603798Y-73143640D01*
X58500500Y-73143640D01*
X58500500Y-55424038D01*
X94099500Y-55424038D01*
X94099500Y-56975961D01*
X94138910Y-57224785D01*
X94216760Y-57464383D01*
X94285811Y-57599901D01*
X94328596Y-57683872D01*
X94331132Y-57688848D01*
X94479201Y-57892649D01*
X94479205Y-57892654D01*
X94657345Y-58070794D01*
X94657350Y-58070798D01*
X94825538Y-58192993D01*
X94861155Y-58218870D01*
X95004184Y-58291747D01*
X95085616Y-58333239D01*
X95085618Y-58333239D01*
X95085621Y-58333241D01*
X95325215Y-58411090D01*
X95574038Y-58450500D01*
X95574039Y-58450500D01*
X95825961Y-58450500D01*
X95825962Y-58450500D01*
X96074785Y-58411090D01*
X96314379Y-58333241D01*
X96538845Y-58218870D01*
X96742656Y-58070793D01*
X96834511Y-57978937D01*
X96895831Y-57945454D01*
X96935445Y-57943330D01*
X96942514Y-57944089D01*
X96942517Y-57944091D01*
X97002127Y-57950500D01*
X98408480Y-57950499D01*
X98475519Y-57970184D01*
X98496161Y-57986818D01*
X99553453Y-59044111D01*
X99553454Y-59044112D01*
X99668192Y-59120777D01*
X99752486Y-59155692D01*
X99795672Y-59173580D01*
X99795676Y-59173580D01*
X99795677Y-59173581D01*
X99931003Y-59200500D01*
X99931006Y-59200500D01*
X99931007Y-59200500D01*
X107241980Y-59200500D01*
X107309019Y-59220185D01*
X107354774Y-59272989D01*
X107356541Y-59277048D01*
X107379222Y-59331807D01*
X107455887Y-59446545D01*
X107455888Y-59446546D01*
X110163181Y-62153837D01*
X110196666Y-62215160D01*
X110199500Y-62241518D01*
X110199500Y-65225500D01*
X110179815Y-65292539D01*
X110127011Y-65338294D01*
X110075502Y-65349500D01*
X110002130Y-65349500D01*
X110002123Y-65349501D01*
X109942516Y-65355908D01*
X109807671Y-65406202D01*
X109807664Y-65406206D01*
X109692455Y-65492452D01*
X109692452Y-65492455D01*
X109606206Y-65607664D01*
X109606202Y-65607671D01*
X109555908Y-65742517D01*
X109549501Y-65802116D01*
X109549501Y-65802123D01*
X109549500Y-65802135D01*
X109549500Y-67597870D01*
X109549501Y-67597876D01*
X109555908Y-67657483D01*
X109606202Y-67792328D01*
X109606206Y-67792335D01*
X109692452Y-67907544D01*
X109692455Y-67907547D01*
X109807664Y-67993793D01*
X109807671Y-67993797D01*
X109852618Y-68010561D01*
X109942517Y-68044091D01*
X110002127Y-68050500D01*
X110012685Y-68050499D01*
X110079723Y-68070179D01*
X110100372Y-68086818D01*
X110770591Y-68757037D01*
X110707007Y-68774075D01*
X110592993Y-68839901D01*
X110499901Y-68932993D01*
X110434075Y-69047007D01*
X110417037Y-69110591D01*
X109784728Y-68478282D01*
X109784727Y-68478282D01*
X109745380Y-68532439D01*
X109648904Y-68721782D01*
X109583242Y-68923869D01*
X109583242Y-68923872D01*
X109550000Y-69133753D01*
X109550000Y-69346246D01*
X109583242Y-69556127D01*
X109583242Y-69556130D01*
X109648904Y-69758217D01*
X109745375Y-69947550D01*
X109784728Y-70001716D01*
X110417037Y-69369408D01*
X110434075Y-69432993D01*
X110499901Y-69547007D01*
X110592993Y-69640099D01*
X110707007Y-69705925D01*
X110770590Y-69722962D01*
X110138282Y-70355269D01*
X110138282Y-70355270D01*
X110192449Y-70394624D01*
X110381782Y-70491095D01*
X110583870Y-70556757D01*
X110793754Y-70590000D01*
X111006246Y-70590000D01*
X111216127Y-70556757D01*
X111216130Y-70556757D01*
X111418217Y-70491095D01*
X111607554Y-70394622D01*
X111661716Y-70355270D01*
X111661717Y-70355270D01*
X111029408Y-69722962D01*
X111092993Y-69705925D01*
X111207007Y-69640099D01*
X111300099Y-69547007D01*
X111365925Y-69432993D01*
X111382962Y-69369409D01*
X112015270Y-70001717D01*
X112015270Y-70001716D01*
X112054622Y-69947554D01*
X112151095Y-69758217D01*
X112216757Y-69556130D01*
X112216757Y-69556127D01*
X112250000Y-69346246D01*
X112250000Y-69133753D01*
X112216757Y-68923872D01*
X112216757Y-68923869D01*
X112151095Y-68721782D01*
X112054624Y-68532449D01*
X112015270Y-68478282D01*
X112015269Y-68478282D01*
X111382962Y-69110590D01*
X111365925Y-69047007D01*
X111300099Y-68932993D01*
X111207007Y-68839901D01*
X111092993Y-68774075D01*
X111029409Y-68757037D01*
X111699627Y-68086818D01*
X111760950Y-68053333D01*
X111787307Y-68050499D01*
X111797872Y-68050499D01*
X111857483Y-68044091D01*
X111992331Y-67993796D01*
X112107546Y-67907546D01*
X112193796Y-67792331D01*
X112244091Y-67657483D01*
X112250500Y-67597873D01*
X112250499Y-65802128D01*
X112244091Y-65742517D01*
X112193796Y-65607669D01*
X112193795Y-65607668D01*
X112193793Y-65607664D01*
X112107547Y-65492455D01*
X112107544Y-65492452D01*
X111992335Y-65406206D01*
X111992328Y-65406202D01*
X111857482Y-65355908D01*
X111857483Y-65355908D01*
X111797883Y-65349501D01*
X111797881Y-65349500D01*
X111797873Y-65349500D01*
X111797865Y-65349500D01*
X111724500Y-65349500D01*
X111657461Y-65329815D01*
X111611706Y-65277011D01*
X111600500Y-65225500D01*
X111600500Y-61831004D01*
X111573581Y-61695677D01*
X111573580Y-61695676D01*
X111573580Y-61695672D01*
X111573578Y-61695667D01*
X111520778Y-61568195D01*
X111520771Y-61568182D01*
X111444115Y-61453459D01*
X111444114Y-61453458D01*
X111346542Y-61355886D01*
X110381598Y-60390942D01*
X109146349Y-59155692D01*
X108736819Y-58746162D01*
X108703334Y-58684839D01*
X108700500Y-58658481D01*
X108700500Y-58431004D01*
X108673581Y-58295677D01*
X108673580Y-58295676D01*
X108673580Y-58295672D01*
X108641768Y-58218870D01*
X108620778Y-58168195D01*
X108620771Y-58168182D01*
X108544114Y-58053458D01*
X108544111Y-58053454D01*
X108446545Y-57955888D01*
X108446541Y-57955885D01*
X108331817Y-57879228D01*
X108331804Y-57879221D01*
X108204332Y-57826421D01*
X108204322Y-57826418D01*
X108068995Y-57799500D01*
X108068993Y-57799500D01*
X105414838Y-57799500D01*
X105347799Y-57779815D01*
X105302044Y-57727011D01*
X105292100Y-57657853D01*
X105304353Y-57619205D01*
X105383239Y-57464383D01*
X105383239Y-57464382D01*
X105383241Y-57464379D01*
X105461090Y-57224785D01*
X105500500Y-56975962D01*
X105500500Y-55424038D01*
X105461090Y-55175215D01*
X105383241Y-54935621D01*
X105383239Y-54935618D01*
X105383239Y-54935616D01*
X105336479Y-54843845D01*
X105268870Y-54711155D01*
X105246426Y-54680263D01*
X105211137Y-54631691D01*
X105160602Y-54562135D01*
X109449500Y-54562135D01*
X109449500Y-56357870D01*
X109449501Y-56357876D01*
X109455908Y-56417483D01*
X109506202Y-56552328D01*
X109506206Y-56552335D01*
X109592452Y-56667544D01*
X109592455Y-56667547D01*
X109707664Y-56753793D01*
X109707671Y-56753797D01*
X109752618Y-56770561D01*
X109842517Y-56804091D01*
X109902127Y-56810500D01*
X109912685Y-56810499D01*
X109979723Y-56830179D01*
X110000372Y-56846818D01*
X110670591Y-57517037D01*
X110607007Y-57534075D01*
X110492993Y-57599901D01*
X110399901Y-57692993D01*
X110334075Y-57807007D01*
X110317037Y-57870591D01*
X109684728Y-57238282D01*
X109684727Y-57238282D01*
X109645380Y-57292439D01*
X109548904Y-57481782D01*
X109483242Y-57683869D01*
X109483242Y-57683872D01*
X109450000Y-57893753D01*
X109450000Y-58106246D01*
X109483242Y-58316127D01*
X109483242Y-58316130D01*
X109548904Y-58518217D01*
X109645375Y-58707550D01*
X109684728Y-58761716D01*
X110317037Y-58129408D01*
X110334075Y-58192993D01*
X110399901Y-58307007D01*
X110492993Y-58400099D01*
X110607007Y-58465925D01*
X110670590Y-58482962D01*
X110038282Y-59115269D01*
X110038282Y-59115270D01*
X110092449Y-59154624D01*
X110281782Y-59251095D01*
X110483870Y-59316757D01*
X110693754Y-59350000D01*
X110906246Y-59350000D01*
X111116127Y-59316757D01*
X111116130Y-59316757D01*
X111318217Y-59251095D01*
X111507554Y-59154622D01*
X111561716Y-59115270D01*
X111561717Y-59115270D01*
X110929408Y-58482962D01*
X110992993Y-58465925D01*
X111107007Y-58400099D01*
X111200099Y-58307007D01*
X111265925Y-58192993D01*
X111282962Y-58129409D01*
X111915270Y-58761717D01*
X111915270Y-58761716D01*
X111954622Y-58707554D01*
X112051095Y-58518217D01*
X112116757Y-58316130D01*
X112116757Y-58316127D01*
X112150000Y-58106246D01*
X112150000Y-57893753D01*
X112116757Y-57683872D01*
X112116757Y-57683869D01*
X112051095Y-57481782D01*
X111954624Y-57292449D01*
X111915270Y-57238282D01*
X111915269Y-57238282D01*
X111282962Y-57870590D01*
X111265925Y-57807007D01*
X111200099Y-57692993D01*
X111107007Y-57599901D01*
X110992993Y-57534075D01*
X110929409Y-57517037D01*
X111599627Y-56846818D01*
X111660950Y-56813333D01*
X111687307Y-56810499D01*
X111697872Y-56810499D01*
X111757483Y-56804091D01*
X111892331Y-56753796D01*
X112007546Y-56667546D01*
X112093796Y-56552331D01*
X112144091Y-56417483D01*
X112150500Y-56357873D01*
X112150499Y-54562128D01*
X112144091Y-54502517D01*
X112135801Y-54480291D01*
X112093797Y-54367671D01*
X112093793Y-54367664D01*
X112007547Y-54252455D01*
X112007544Y-54252452D01*
X111892335Y-54166206D01*
X111892328Y-54166202D01*
X111757482Y-54115908D01*
X111757483Y-54115908D01*
X111697883Y-54109501D01*
X111697881Y-54109500D01*
X111697873Y-54109500D01*
X111697864Y-54109500D01*
X109902129Y-54109500D01*
X109902123Y-54109501D01*
X109842516Y-54115908D01*
X109707671Y-54166202D01*
X109707664Y-54166206D01*
X109592455Y-54252452D01*
X109592452Y-54252455D01*
X109506206Y-54367664D01*
X109506202Y-54367671D01*
X109455908Y-54502517D01*
X109449501Y-54562116D01*
X109449501Y-54562123D01*
X109449500Y-54562135D01*
X105160602Y-54562135D01*
X105120798Y-54507350D01*
X105120794Y-54507345D01*
X104942654Y-54329205D01*
X104942649Y-54329201D01*
X104738848Y-54181132D01*
X104738847Y-54181131D01*
X104738845Y-54181130D01*
X104668747Y-54145413D01*
X104514383Y-54066760D01*
X104274785Y-53988910D01*
X104025962Y-53949500D01*
X103774038Y-53949500D01*
X103649626Y-53969205D01*
X103525214Y-53988910D01*
X103285616Y-54066760D01*
X103061151Y-54181132D01*
X102857350Y-54329201D01*
X102857345Y-54329205D01*
X102679209Y-54507341D01*
X102679202Y-54507350D01*
X102615699Y-54594753D01*
X102560369Y-54637419D01*
X102490756Y-54643397D01*
X102459087Y-54632352D01*
X102280029Y-54541117D01*
X102092826Y-54480290D01*
X101898422Y-54449500D01*
X101898417Y-54449500D01*
X101701583Y-54449500D01*
X101701578Y-54449500D01*
X101507173Y-54480290D01*
X101319970Y-54541117D01*
X101144594Y-54630476D01*
X101076069Y-54680263D01*
X100985354Y-54746172D01*
X100985352Y-54746174D01*
X100985351Y-54746174D01*
X100887681Y-54843845D01*
X100826358Y-54877330D01*
X100756666Y-54872346D01*
X100712319Y-54843845D01*
X100614648Y-54746174D01*
X100614646Y-54746172D01*
X100455405Y-54630476D01*
X100455403Y-54630475D01*
X100280029Y-54541117D01*
X100092826Y-54480290D01*
X99898422Y-54449500D01*
X99898417Y-54449500D01*
X99701583Y-54449500D01*
X99701578Y-54449500D01*
X99507173Y-54480290D01*
X99319970Y-54541117D01*
X99144595Y-54630475D01*
X99108385Y-54656784D01*
X99042578Y-54680263D01*
X98974524Y-54664437D01*
X98936235Y-54630778D01*
X98907546Y-54592454D01*
X98907544Y-54592452D01*
X98907543Y-54592451D01*
X98792335Y-54506206D01*
X98792328Y-54506202D01*
X98657482Y-54455908D01*
X98657483Y-54455908D01*
X98597883Y-54449501D01*
X98597881Y-54449500D01*
X98597873Y-54449500D01*
X98597864Y-54449500D01*
X97002129Y-54449500D01*
X97002123Y-54449501D01*
X96935443Y-54456669D01*
X96866683Y-54444262D01*
X96834509Y-54421060D01*
X96742654Y-54329205D01*
X96742649Y-54329201D01*
X96538848Y-54181132D01*
X96538847Y-54181131D01*
X96538845Y-54181130D01*
X96468747Y-54145413D01*
X96314383Y-54066760D01*
X96074785Y-53988910D01*
X95825962Y-53949500D01*
X95574038Y-53949500D01*
X95449626Y-53969205D01*
X95325214Y-53988910D01*
X95085616Y-54066760D01*
X94861151Y-54181132D01*
X94657350Y-54329201D01*
X94657345Y-54329205D01*
X94479205Y-54507345D01*
X94479201Y-54507350D01*
X94331132Y-54711151D01*
X94216760Y-54935616D01*
X94138910Y-55175214D01*
X94099500Y-55424038D01*
X58500500Y-55424038D01*
X58500500Y-52116080D01*
X58520185Y-52049041D01*
X58572989Y-52003286D01*
X58642147Y-51993342D01*
X58705703Y-52022367D01*
X58736220Y-52062279D01*
X58808051Y-52211439D01*
X58808055Y-52211445D01*
X58957477Y-52449248D01*
X59132584Y-52668825D01*
X59331175Y-52867416D01*
X59550752Y-53042523D01*
X59788555Y-53191945D01*
X60041592Y-53313801D01*
X60240680Y-53383465D01*
X60306670Y-53406556D01*
X60306682Y-53406560D01*
X60580491Y-53469055D01*
X60580497Y-53469055D01*
X60580505Y-53469057D01*
X60766547Y-53490018D01*
X60859569Y-53500499D01*
X60859572Y-53500500D01*
X60859575Y-53500500D01*
X61140428Y-53500500D01*
X61140429Y-53500499D01*
X61283055Y-53484429D01*
X61419494Y-53469057D01*
X61419499Y-53469056D01*
X61419509Y-53469055D01*
X61693318Y-53406560D01*
X61958408Y-53313801D01*
X62211445Y-53191945D01*
X62449248Y-53042523D01*
X62668825Y-52867416D01*
X62867416Y-52668825D01*
X63042523Y-52449248D01*
X63191945Y-52211445D01*
X63313801Y-51958408D01*
X63406560Y-51693318D01*
X63469055Y-51419509D01*
X63500500Y-51140425D01*
X63500500Y-50859575D01*
X63469055Y-50580491D01*
X63406560Y-50306682D01*
X63313801Y-50041592D01*
X63191945Y-49788555D01*
X63042523Y-49550752D01*
X62867416Y-49331175D01*
X62668825Y-49132584D01*
X62449248Y-48957477D01*
X62211445Y-48808055D01*
X62211446Y-48808055D01*
X62211439Y-48808051D01*
X62062279Y-48736220D01*
X62010419Y-48689398D01*
X61992106Y-48621971D01*
X62013154Y-48555347D01*
X62066880Y-48510678D01*
X62116080Y-48500500D01*
X113883920Y-48500500D01*
X113950959Y-48520185D01*
G37*
%TD.AperFunction*%
%TD*%
M02*
