%TF.GenerationSoftware,KiCad,Pcbnew,10.0.1*%
%TF.CreationDate,2026-04-29T08:15:31+05:30*%
%TF.ProjectId,atari_punk_console,61746172-695f-4707-956e-6b5f636f6e73,rev?*%
%TF.SameCoordinates,Original*%
%TF.FileFunction,Soldermask,Top*%
%TF.FilePolarity,Negative*%
%FSLAX46Y46*%
G04 Gerber Fmt 4.6, Leading zero omitted, Abs format (unit mm)*
G04 Created by KiCad (PCBNEW 10.0.1) date 2026-04-29 08:15:31*
%MOMM*%
%LPD*%
G01*
G04 APERTURE LIST*
G04 APERTURE END LIST*
G36*
X111032228Y-88834448D02*
G01*
X111177117Y-88894463D01*
X111307515Y-88981592D01*
X111418408Y-89092485D01*
X111505537Y-89222883D01*
X111565552Y-89367772D01*
X111596148Y-89521586D01*
X111596148Y-89678414D01*
X111565552Y-89832228D01*
X111505537Y-89977117D01*
X111418408Y-90107515D01*
X111307515Y-90218408D01*
X111177117Y-90305537D01*
X111032228Y-90365552D01*
X110878414Y-90396148D01*
X110721586Y-90396148D01*
X110567772Y-90365552D01*
X110422883Y-90305537D01*
X110292485Y-90218408D01*
X110181592Y-90107515D01*
X110094463Y-89977117D01*
X110034448Y-89832228D01*
X110003852Y-89678414D01*
X110003852Y-89521586D01*
X110034448Y-89367772D01*
X110094463Y-89222883D01*
X110181592Y-89092485D01*
X110292485Y-88981592D01*
X110422883Y-88894463D01*
X110567772Y-88834448D01*
X110721586Y-88803852D01*
X110878414Y-88803852D01*
X111032228Y-88834448D01*
G37*
G36*
X87312228Y-87834448D02*
G01*
X87457117Y-87894463D01*
X87587515Y-87981592D01*
X87698408Y-88092485D01*
X87785537Y-88222883D01*
X87845552Y-88367772D01*
X87876148Y-88521586D01*
X87876148Y-88678414D01*
X87845552Y-88832228D01*
X87785537Y-88977117D01*
X87698408Y-89107515D01*
X87587515Y-89218408D01*
X87457117Y-89305537D01*
X87312228Y-89365552D01*
X87158414Y-89396148D01*
X87001586Y-89396148D01*
X86847772Y-89365552D01*
X86702883Y-89305537D01*
X86572485Y-89218408D01*
X86461592Y-89107515D01*
X86374463Y-88977117D01*
X86314448Y-88832228D01*
X86283852Y-88678414D01*
X86283852Y-88521586D01*
X86314448Y-88367772D01*
X86374463Y-88222883D01*
X86461592Y-88092485D01*
X86572485Y-87981592D01*
X86702883Y-87894463D01*
X86847772Y-87834448D01*
X87001586Y-87803852D01*
X87158414Y-87803852D01*
X87312228Y-87834448D01*
G37*
G36*
X102552228Y-87834448D02*
G01*
X102697117Y-87894463D01*
X102827515Y-87981592D01*
X102938408Y-88092485D01*
X103025537Y-88222883D01*
X103085552Y-88367772D01*
X103116148Y-88521586D01*
X103116148Y-88678414D01*
X103085552Y-88832228D01*
X103025537Y-88977117D01*
X102938408Y-89107515D01*
X102827515Y-89218408D01*
X102697117Y-89305537D01*
X102552228Y-89365552D01*
X102398414Y-89396148D01*
X102241586Y-89396148D01*
X102087772Y-89365552D01*
X101942883Y-89305537D01*
X101812485Y-89218408D01*
X101701592Y-89107515D01*
X101614463Y-88977117D01*
X101554448Y-88832228D01*
X101523852Y-88678414D01*
X101523852Y-88521586D01*
X101554448Y-88367772D01*
X101614463Y-88222883D01*
X101701592Y-88092485D01*
X101812485Y-87981592D01*
X101942883Y-87894463D01*
X102087772Y-87834448D01*
X102241586Y-87803852D01*
X102398414Y-87803852D01*
X102552228Y-87834448D01*
G37*
G36*
X68009005Y-87011003D02*
G01*
X68139406Y-87065017D01*
X68256763Y-87143432D01*
X68356568Y-87243237D01*
X68434983Y-87360594D01*
X68488997Y-87490995D01*
X68516533Y-87629428D01*
X68516533Y-87770572D01*
X68488997Y-87909005D01*
X68434983Y-88039406D01*
X68356568Y-88156763D01*
X68256763Y-88256568D01*
X68139406Y-88334983D01*
X68009005Y-88388997D01*
X67870572Y-88416533D01*
X67729428Y-88416533D01*
X67590995Y-88388997D01*
X67460594Y-88334983D01*
X67343237Y-88256568D01*
X67243432Y-88156763D01*
X67165017Y-88039406D01*
X67111003Y-87909005D01*
X67083467Y-87770572D01*
X67083467Y-87629428D01*
X67111003Y-87490995D01*
X67165017Y-87360594D01*
X67243432Y-87243237D01*
X67343237Y-87143432D01*
X67460594Y-87065017D01*
X67590995Y-87011003D01*
X67729428Y-86983467D01*
X67870572Y-86983467D01*
X68009005Y-87011003D01*
G37*
G36*
X70549005Y-84471003D02*
G01*
X70679406Y-84525017D01*
X70796763Y-84603432D01*
X70896568Y-84703237D01*
X70974983Y-84820594D01*
X71028997Y-84950995D01*
X71056533Y-85089428D01*
X71056533Y-85230572D01*
X71028997Y-85369005D01*
X70974983Y-85499406D01*
X70896568Y-85616763D01*
X70796763Y-85716568D01*
X70679406Y-85794983D01*
X70549005Y-85848997D01*
X70410572Y-85876533D01*
X70269428Y-85876533D01*
X70130995Y-85848997D01*
X70000594Y-85794983D01*
X69883237Y-85716568D01*
X69783432Y-85616763D01*
X69705017Y-85499406D01*
X69651003Y-85369005D01*
X69623467Y-85230572D01*
X69623467Y-85089428D01*
X69651003Y-84950995D01*
X69705017Y-84820594D01*
X69783432Y-84703237D01*
X69883237Y-84603432D01*
X70000594Y-84525017D01*
X70130995Y-84471003D01*
X70269428Y-84443467D01*
X70410572Y-84443467D01*
X70549005Y-84471003D01*
G37*
G36*
X111032228Y-83834448D02*
G01*
X111177117Y-83894463D01*
X111307515Y-83981592D01*
X111418408Y-84092485D01*
X111505537Y-84222883D01*
X111565552Y-84367772D01*
X111596148Y-84521586D01*
X111596148Y-84678414D01*
X111565552Y-84832228D01*
X111505537Y-84977117D01*
X111418408Y-85107515D01*
X111307515Y-85218408D01*
X111177117Y-85305537D01*
X111032228Y-85365552D01*
X110878414Y-85396148D01*
X110721586Y-85396148D01*
X110567772Y-85365552D01*
X110422883Y-85305537D01*
X110292485Y-85218408D01*
X110181592Y-85107515D01*
X110094463Y-84977117D01*
X110034448Y-84832228D01*
X110003852Y-84678414D01*
X110003852Y-84521586D01*
X110034448Y-84367772D01*
X110094463Y-84222883D01*
X110181592Y-84092485D01*
X110292485Y-83981592D01*
X110422883Y-83894463D01*
X110567772Y-83834448D01*
X110721586Y-83803852D01*
X110878414Y-83803852D01*
X111032228Y-83834448D01*
G37*
G36*
X68009005Y-81931003D02*
G01*
X68139406Y-81985017D01*
X68256763Y-82063432D01*
X68356568Y-82163237D01*
X68434983Y-82280594D01*
X68488997Y-82410995D01*
X68516533Y-82549428D01*
X68516533Y-82690572D01*
X68488997Y-82829005D01*
X68434983Y-82959406D01*
X68356568Y-83076763D01*
X68256763Y-83176568D01*
X68139406Y-83254983D01*
X68009005Y-83308997D01*
X67870572Y-83336533D01*
X67729428Y-83336533D01*
X67590995Y-83308997D01*
X67460594Y-83254983D01*
X67343237Y-83176568D01*
X67243432Y-83076763D01*
X67165017Y-82959406D01*
X67111003Y-82829005D01*
X67083467Y-82690572D01*
X67083467Y-82549428D01*
X67111003Y-82410995D01*
X67165017Y-82280594D01*
X67243432Y-82163237D01*
X67343237Y-82063432D01*
X67460594Y-81985017D01*
X67590995Y-81931003D01*
X67729428Y-81903467D01*
X67870572Y-81903467D01*
X68009005Y-81931003D01*
G37*
G36*
X87394850Y-81100964D02*
G01*
X87445040Y-81106787D01*
X87462189Y-81114359D01*
X87485671Y-81119030D01*
X87510810Y-81135827D01*
X87530696Y-81144608D01*
X87544277Y-81158189D01*
X87566777Y-81173223D01*
X87581810Y-81195722D01*
X87595391Y-81209303D01*
X87604170Y-81229186D01*
X87620970Y-81254329D01*
X87625641Y-81277812D01*
X87633212Y-81294959D01*
X87639033Y-81345139D01*
X87640000Y-81350000D01*
X87640000Y-82450000D01*
X87639032Y-82454863D01*
X87633212Y-82505040D01*
X87625641Y-82522185D01*
X87620970Y-82545671D01*
X87604169Y-82570815D01*
X87595391Y-82590696D01*
X87581812Y-82604274D01*
X87566777Y-82626777D01*
X87544274Y-82641812D01*
X87530696Y-82655391D01*
X87510815Y-82664169D01*
X87485671Y-82680970D01*
X87462185Y-82685641D01*
X87445040Y-82693212D01*
X87394861Y-82699032D01*
X87390000Y-82700000D01*
X86290000Y-82700000D01*
X86285138Y-82699032D01*
X86234959Y-82693212D01*
X86217812Y-82685641D01*
X86194329Y-82680970D01*
X86169186Y-82664170D01*
X86149303Y-82655391D01*
X86135722Y-82641810D01*
X86113223Y-82626777D01*
X86098189Y-82604277D01*
X86084608Y-82590696D01*
X86075827Y-82570810D01*
X86059030Y-82545671D01*
X86054359Y-82522189D01*
X86046787Y-82505040D01*
X86040964Y-82454849D01*
X86040000Y-82450000D01*
X86040000Y-81350000D01*
X86040964Y-81345150D01*
X86046787Y-81294959D01*
X86054359Y-81277808D01*
X86059030Y-81254329D01*
X86075826Y-81229191D01*
X86084608Y-81209303D01*
X86098191Y-81195719D01*
X86113223Y-81173223D01*
X86135719Y-81158191D01*
X86149303Y-81144608D01*
X86169191Y-81135826D01*
X86194329Y-81119030D01*
X86217808Y-81114359D01*
X86234959Y-81106787D01*
X86285151Y-81100964D01*
X86290000Y-81100000D01*
X87390000Y-81100000D01*
X87394850Y-81100964D01*
G37*
G36*
X89612228Y-81134448D02*
G01*
X89757117Y-81194463D01*
X89887515Y-81281592D01*
X89998408Y-81392485D01*
X90085537Y-81522883D01*
X90145552Y-81667772D01*
X90176148Y-81821586D01*
X90176148Y-81978414D01*
X90145552Y-82132228D01*
X90085537Y-82277117D01*
X89998408Y-82407515D01*
X89887515Y-82518408D01*
X89757117Y-82605537D01*
X89612228Y-82665552D01*
X89458414Y-82696148D01*
X89301586Y-82696148D01*
X89147772Y-82665552D01*
X89002883Y-82605537D01*
X88872485Y-82518408D01*
X88761592Y-82407515D01*
X88674463Y-82277117D01*
X88614448Y-82132228D01*
X88583852Y-81978414D01*
X88583852Y-81821586D01*
X88614448Y-81667772D01*
X88674463Y-81522883D01*
X88761592Y-81392485D01*
X88872485Y-81281592D01*
X89002883Y-81194463D01*
X89147772Y-81134448D01*
X89301586Y-81103852D01*
X89458414Y-81103852D01*
X89612228Y-81134448D01*
G37*
G36*
X92152228Y-81134448D02*
G01*
X92297117Y-81194463D01*
X92427515Y-81281592D01*
X92538408Y-81392485D01*
X92625537Y-81522883D01*
X92685552Y-81667772D01*
X92716148Y-81821586D01*
X92716148Y-81978414D01*
X92685552Y-82132228D01*
X92625537Y-82277117D01*
X92538408Y-82407515D01*
X92427515Y-82518408D01*
X92297117Y-82605537D01*
X92152228Y-82665552D01*
X91998414Y-82696148D01*
X91841586Y-82696148D01*
X91687772Y-82665552D01*
X91542883Y-82605537D01*
X91412485Y-82518408D01*
X91301592Y-82407515D01*
X91214463Y-82277117D01*
X91154448Y-82132228D01*
X91123852Y-81978414D01*
X91123852Y-81821586D01*
X91154448Y-81667772D01*
X91214463Y-81522883D01*
X91301592Y-81392485D01*
X91412485Y-81281592D01*
X91542883Y-81194463D01*
X91687772Y-81134448D01*
X91841586Y-81103852D01*
X91998414Y-81103852D01*
X92152228Y-81134448D01*
G37*
G36*
X94692228Y-81134448D02*
G01*
X94837117Y-81194463D01*
X94967515Y-81281592D01*
X95078408Y-81392485D01*
X95165537Y-81522883D01*
X95225552Y-81667772D01*
X95256148Y-81821586D01*
X95256148Y-81978414D01*
X95225552Y-82132228D01*
X95165537Y-82277117D01*
X95078408Y-82407515D01*
X94967515Y-82518408D01*
X94837117Y-82605537D01*
X94692228Y-82665552D01*
X94538414Y-82696148D01*
X94381586Y-82696148D01*
X94227772Y-82665552D01*
X94082883Y-82605537D01*
X93952485Y-82518408D01*
X93841592Y-82407515D01*
X93754463Y-82277117D01*
X93694448Y-82132228D01*
X93663852Y-81978414D01*
X93663852Y-81821586D01*
X93694448Y-81667772D01*
X93754463Y-81522883D01*
X93841592Y-81392485D01*
X93952485Y-81281592D01*
X94082883Y-81194463D01*
X94227772Y-81134448D01*
X94381586Y-81103852D01*
X94538414Y-81103852D01*
X94692228Y-81134448D01*
G37*
G36*
X97232228Y-81134448D02*
G01*
X97377117Y-81194463D01*
X97507515Y-81281592D01*
X97618408Y-81392485D01*
X97705537Y-81522883D01*
X97765552Y-81667772D01*
X97796148Y-81821586D01*
X97796148Y-81978414D01*
X97765552Y-82132228D01*
X97705537Y-82277117D01*
X97618408Y-82407515D01*
X97507515Y-82518408D01*
X97377117Y-82605537D01*
X97232228Y-82665552D01*
X97078414Y-82696148D01*
X96921586Y-82696148D01*
X96767772Y-82665552D01*
X96622883Y-82605537D01*
X96492485Y-82518408D01*
X96381592Y-82407515D01*
X96294463Y-82277117D01*
X96234448Y-82132228D01*
X96203852Y-81978414D01*
X96203852Y-81821586D01*
X96234448Y-81667772D01*
X96294463Y-81522883D01*
X96381592Y-81392485D01*
X96492485Y-81281592D01*
X96622883Y-81194463D01*
X96767772Y-81134448D01*
X96921586Y-81103852D01*
X97078414Y-81103852D01*
X97232228Y-81134448D01*
G37*
G36*
X99772228Y-81134448D02*
G01*
X99917117Y-81194463D01*
X100047515Y-81281592D01*
X100158408Y-81392485D01*
X100245537Y-81522883D01*
X100305552Y-81667772D01*
X100336148Y-81821586D01*
X100336148Y-81978414D01*
X100305552Y-82132228D01*
X100245537Y-82277117D01*
X100158408Y-82407515D01*
X100047515Y-82518408D01*
X99917117Y-82605537D01*
X99772228Y-82665552D01*
X99618414Y-82696148D01*
X99461586Y-82696148D01*
X99307772Y-82665552D01*
X99162883Y-82605537D01*
X99032485Y-82518408D01*
X98921592Y-82407515D01*
X98834463Y-82277117D01*
X98774448Y-82132228D01*
X98743852Y-81978414D01*
X98743852Y-81821586D01*
X98774448Y-81667772D01*
X98834463Y-81522883D01*
X98921592Y-81392485D01*
X99032485Y-81281592D01*
X99162883Y-81194463D01*
X99307772Y-81134448D01*
X99461586Y-81103852D01*
X99618414Y-81103852D01*
X99772228Y-81134448D01*
G37*
G36*
X102312228Y-81134448D02*
G01*
X102457117Y-81194463D01*
X102587515Y-81281592D01*
X102698408Y-81392485D01*
X102785537Y-81522883D01*
X102845552Y-81667772D01*
X102876148Y-81821586D01*
X102876148Y-81978414D01*
X102845552Y-82132228D01*
X102785537Y-82277117D01*
X102698408Y-82407515D01*
X102587515Y-82518408D01*
X102457117Y-82605537D01*
X102312228Y-82665552D01*
X102158414Y-82696148D01*
X102001586Y-82696148D01*
X101847772Y-82665552D01*
X101702883Y-82605537D01*
X101572485Y-82518408D01*
X101461592Y-82407515D01*
X101374463Y-82277117D01*
X101314448Y-82132228D01*
X101283852Y-81978414D01*
X101283852Y-81821586D01*
X101314448Y-81667772D01*
X101374463Y-81522883D01*
X101461592Y-81392485D01*
X101572485Y-81281592D01*
X101702883Y-81194463D01*
X101847772Y-81134448D01*
X102001586Y-81103852D01*
X102158414Y-81103852D01*
X102312228Y-81134448D01*
G37*
G36*
X79317714Y-79982295D02*
G01*
X79453548Y-80038559D01*
X79575795Y-80120242D01*
X79679758Y-80224205D01*
X79761441Y-80346452D01*
X79817705Y-80482286D01*
X79846389Y-80626487D01*
X79846389Y-80773513D01*
X79817705Y-80917714D01*
X79761441Y-81053548D01*
X79679758Y-81175795D01*
X79575795Y-81279758D01*
X79453548Y-81361441D01*
X79317714Y-81417705D01*
X79173513Y-81446389D01*
X79026487Y-81446389D01*
X78882286Y-81417705D01*
X78746452Y-81361441D01*
X78624205Y-81279758D01*
X78520242Y-81175795D01*
X78438559Y-81053548D01*
X78382295Y-80917714D01*
X78353611Y-80773513D01*
X78353611Y-80626487D01*
X78382295Y-80482286D01*
X78438559Y-80346452D01*
X78520242Y-80224205D01*
X78624205Y-80120242D01*
X78746452Y-80038559D01*
X78882286Y-79982295D01*
X79026487Y-79953611D01*
X79173513Y-79953611D01*
X79317714Y-79982295D01*
G37*
G36*
X111032228Y-79434448D02*
G01*
X111177117Y-79494463D01*
X111307515Y-79581592D01*
X111418408Y-79692485D01*
X111505537Y-79822883D01*
X111565552Y-79967772D01*
X111596148Y-80121586D01*
X111596148Y-80278414D01*
X111565552Y-80432228D01*
X111505537Y-80577117D01*
X111418408Y-80707515D01*
X111307515Y-80818408D01*
X111177117Y-80905537D01*
X111032228Y-80965552D01*
X110878414Y-80996148D01*
X110721586Y-80996148D01*
X110567772Y-80965552D01*
X110422883Y-80905537D01*
X110292485Y-80818408D01*
X110181592Y-80707515D01*
X110094463Y-80577117D01*
X110034448Y-80432228D01*
X110003852Y-80278414D01*
X110003852Y-80121586D01*
X110034448Y-79967772D01*
X110094463Y-79822883D01*
X110181592Y-79692485D01*
X110292485Y-79581592D01*
X110422883Y-79494463D01*
X110567772Y-79434448D01*
X110721586Y-79403852D01*
X110878414Y-79403852D01*
X111032228Y-79434448D01*
G37*
G36*
X79317714Y-74982295D02*
G01*
X79453548Y-75038559D01*
X79575795Y-75120242D01*
X79679758Y-75224205D01*
X79761441Y-75346452D01*
X79817705Y-75482286D01*
X79846389Y-75626487D01*
X79846389Y-75773513D01*
X79817705Y-75917714D01*
X79761441Y-76053548D01*
X79679758Y-76175795D01*
X79575795Y-76279758D01*
X79453548Y-76361441D01*
X79317714Y-76417705D01*
X79173513Y-76446389D01*
X79026487Y-76446389D01*
X78882286Y-76417705D01*
X78746452Y-76361441D01*
X78624205Y-76279758D01*
X78520242Y-76175795D01*
X78438559Y-76053548D01*
X78382295Y-75917714D01*
X78353611Y-75773513D01*
X78353611Y-75626487D01*
X78382295Y-75482286D01*
X78438559Y-75346452D01*
X78520242Y-75224205D01*
X78624205Y-75120242D01*
X78746452Y-75038559D01*
X78882286Y-74982295D01*
X79026487Y-74953611D01*
X79173513Y-74953611D01*
X79317714Y-74982295D01*
G37*
G36*
X111032228Y-74434448D02*
G01*
X111177117Y-74494463D01*
X111307515Y-74581592D01*
X111418408Y-74692485D01*
X111505537Y-74822883D01*
X111565552Y-74967772D01*
X111596148Y-75121586D01*
X111596148Y-75278414D01*
X111565552Y-75432228D01*
X111505537Y-75577117D01*
X111418408Y-75707515D01*
X111307515Y-75818408D01*
X111177117Y-75905537D01*
X111032228Y-75965552D01*
X110878414Y-75996148D01*
X110721586Y-75996148D01*
X110567772Y-75965552D01*
X110422883Y-75905537D01*
X110292485Y-75818408D01*
X110181592Y-75707515D01*
X110094463Y-75577117D01*
X110034448Y-75432228D01*
X110003852Y-75278414D01*
X110003852Y-75121586D01*
X110034448Y-74967772D01*
X110094463Y-74822883D01*
X110181592Y-74692485D01*
X110292485Y-74581592D01*
X110422883Y-74494463D01*
X110567772Y-74434448D01*
X110721586Y-74403852D01*
X110878414Y-74403852D01*
X111032228Y-74434448D01*
G37*
G36*
X87072228Y-73514448D02*
G01*
X87217117Y-73574463D01*
X87347515Y-73661592D01*
X87458408Y-73772485D01*
X87545537Y-73902883D01*
X87605552Y-74047772D01*
X87636148Y-74201586D01*
X87636148Y-74358414D01*
X87605552Y-74512228D01*
X87545537Y-74657117D01*
X87458408Y-74787515D01*
X87347515Y-74898408D01*
X87217117Y-74985537D01*
X87072228Y-75045552D01*
X86918414Y-75076148D01*
X86761586Y-75076148D01*
X86607772Y-75045552D01*
X86462883Y-74985537D01*
X86332485Y-74898408D01*
X86221592Y-74787515D01*
X86134463Y-74657117D01*
X86074448Y-74512228D01*
X86043852Y-74358414D01*
X86043852Y-74201586D01*
X86074448Y-74047772D01*
X86134463Y-73902883D01*
X86221592Y-73772485D01*
X86332485Y-73661592D01*
X86462883Y-73574463D01*
X86607772Y-73514448D01*
X86761586Y-73483852D01*
X86918414Y-73483852D01*
X87072228Y-73514448D01*
G37*
G36*
X89612228Y-73514448D02*
G01*
X89757117Y-73574463D01*
X89887515Y-73661592D01*
X89998408Y-73772485D01*
X90085537Y-73902883D01*
X90145552Y-74047772D01*
X90176148Y-74201586D01*
X90176148Y-74358414D01*
X90145552Y-74512228D01*
X90085537Y-74657117D01*
X89998408Y-74787515D01*
X89887515Y-74898408D01*
X89757117Y-74985537D01*
X89612228Y-75045552D01*
X89458414Y-75076148D01*
X89301586Y-75076148D01*
X89147772Y-75045552D01*
X89002883Y-74985537D01*
X88872485Y-74898408D01*
X88761592Y-74787515D01*
X88674463Y-74657117D01*
X88614448Y-74512228D01*
X88583852Y-74358414D01*
X88583852Y-74201586D01*
X88614448Y-74047772D01*
X88674463Y-73902883D01*
X88761592Y-73772485D01*
X88872485Y-73661592D01*
X89002883Y-73574463D01*
X89147772Y-73514448D01*
X89301586Y-73483852D01*
X89458414Y-73483852D01*
X89612228Y-73514448D01*
G37*
G36*
X92152228Y-73514448D02*
G01*
X92297117Y-73574463D01*
X92427515Y-73661592D01*
X92538408Y-73772485D01*
X92625537Y-73902883D01*
X92685552Y-74047772D01*
X92716148Y-74201586D01*
X92716148Y-74358414D01*
X92685552Y-74512228D01*
X92625537Y-74657117D01*
X92538408Y-74787515D01*
X92427515Y-74898408D01*
X92297117Y-74985537D01*
X92152228Y-75045552D01*
X91998414Y-75076148D01*
X91841586Y-75076148D01*
X91687772Y-75045552D01*
X91542883Y-74985537D01*
X91412485Y-74898408D01*
X91301592Y-74787515D01*
X91214463Y-74657117D01*
X91154448Y-74512228D01*
X91123852Y-74358414D01*
X91123852Y-74201586D01*
X91154448Y-74047772D01*
X91214463Y-73902883D01*
X91301592Y-73772485D01*
X91412485Y-73661592D01*
X91542883Y-73574463D01*
X91687772Y-73514448D01*
X91841586Y-73483852D01*
X91998414Y-73483852D01*
X92152228Y-73514448D01*
G37*
G36*
X94692228Y-73514448D02*
G01*
X94837117Y-73574463D01*
X94967515Y-73661592D01*
X95078408Y-73772485D01*
X95165537Y-73902883D01*
X95225552Y-74047772D01*
X95256148Y-74201586D01*
X95256148Y-74358414D01*
X95225552Y-74512228D01*
X95165537Y-74657117D01*
X95078408Y-74787515D01*
X94967515Y-74898408D01*
X94837117Y-74985537D01*
X94692228Y-75045552D01*
X94538414Y-75076148D01*
X94381586Y-75076148D01*
X94227772Y-75045552D01*
X94082883Y-74985537D01*
X93952485Y-74898408D01*
X93841592Y-74787515D01*
X93754463Y-74657117D01*
X93694448Y-74512228D01*
X93663852Y-74358414D01*
X93663852Y-74201586D01*
X93694448Y-74047772D01*
X93754463Y-73902883D01*
X93841592Y-73772485D01*
X93952485Y-73661592D01*
X94082883Y-73574463D01*
X94227772Y-73514448D01*
X94381586Y-73483852D01*
X94538414Y-73483852D01*
X94692228Y-73514448D01*
G37*
G36*
X97232228Y-73514448D02*
G01*
X97377117Y-73574463D01*
X97507515Y-73661592D01*
X97618408Y-73772485D01*
X97705537Y-73902883D01*
X97765552Y-74047772D01*
X97796148Y-74201586D01*
X97796148Y-74358414D01*
X97765552Y-74512228D01*
X97705537Y-74657117D01*
X97618408Y-74787515D01*
X97507515Y-74898408D01*
X97377117Y-74985537D01*
X97232228Y-75045552D01*
X97078414Y-75076148D01*
X96921586Y-75076148D01*
X96767772Y-75045552D01*
X96622883Y-74985537D01*
X96492485Y-74898408D01*
X96381592Y-74787515D01*
X96294463Y-74657117D01*
X96234448Y-74512228D01*
X96203852Y-74358414D01*
X96203852Y-74201586D01*
X96234448Y-74047772D01*
X96294463Y-73902883D01*
X96381592Y-73772485D01*
X96492485Y-73661592D01*
X96622883Y-73574463D01*
X96767772Y-73514448D01*
X96921586Y-73483852D01*
X97078414Y-73483852D01*
X97232228Y-73514448D01*
G37*
G36*
X99772228Y-73514448D02*
G01*
X99917117Y-73574463D01*
X100047515Y-73661592D01*
X100158408Y-73772485D01*
X100245537Y-73902883D01*
X100305552Y-74047772D01*
X100336148Y-74201586D01*
X100336148Y-74358414D01*
X100305552Y-74512228D01*
X100245537Y-74657117D01*
X100158408Y-74787515D01*
X100047515Y-74898408D01*
X99917117Y-74985537D01*
X99772228Y-75045552D01*
X99618414Y-75076148D01*
X99461586Y-75076148D01*
X99307772Y-75045552D01*
X99162883Y-74985537D01*
X99032485Y-74898408D01*
X98921592Y-74787515D01*
X98834463Y-74657117D01*
X98774448Y-74512228D01*
X98743852Y-74358414D01*
X98743852Y-74201586D01*
X98774448Y-74047772D01*
X98834463Y-73902883D01*
X98921592Y-73772485D01*
X99032485Y-73661592D01*
X99162883Y-73574463D01*
X99307772Y-73514448D01*
X99461586Y-73483852D01*
X99618414Y-73483852D01*
X99772228Y-73514448D01*
G37*
G36*
X102312228Y-73514448D02*
G01*
X102457117Y-73574463D01*
X102587515Y-73661592D01*
X102698408Y-73772485D01*
X102785537Y-73902883D01*
X102845552Y-74047772D01*
X102876148Y-74201586D01*
X102876148Y-74358414D01*
X102845552Y-74512228D01*
X102785537Y-74657117D01*
X102698408Y-74787515D01*
X102587515Y-74898408D01*
X102457117Y-74985537D01*
X102312228Y-75045552D01*
X102158414Y-75076148D01*
X102001586Y-75076148D01*
X101847772Y-75045552D01*
X101702883Y-74985537D01*
X101572485Y-74898408D01*
X101461592Y-74787515D01*
X101374463Y-74657117D01*
X101314448Y-74512228D01*
X101283852Y-74358414D01*
X101283852Y-74201586D01*
X101314448Y-74047772D01*
X101374463Y-73902883D01*
X101461592Y-73772485D01*
X101572485Y-73661592D01*
X101702883Y-73574463D01*
X101847772Y-73514448D01*
X102001586Y-73483852D01*
X102158414Y-73483852D01*
X102312228Y-73514448D01*
G37*
G36*
X111146742Y-68426601D02*
G01*
X111300687Y-68490367D01*
X111439234Y-68582941D01*
X111557059Y-68700766D01*
X111649633Y-68839313D01*
X111713399Y-68993258D01*
X111745907Y-69156685D01*
X111745907Y-69323315D01*
X111713399Y-69486742D01*
X111649633Y-69640687D01*
X111557059Y-69779234D01*
X111439234Y-69897059D01*
X111300687Y-69989633D01*
X111146742Y-70053399D01*
X110983315Y-70085907D01*
X110816685Y-70085907D01*
X110653258Y-70053399D01*
X110499313Y-69989633D01*
X110360766Y-69897059D01*
X110242941Y-69779234D01*
X110150367Y-69640687D01*
X110086601Y-69486742D01*
X110054093Y-69323315D01*
X110054093Y-69156685D01*
X110086601Y-68993258D01*
X110150367Y-68839313D01*
X110242941Y-68700766D01*
X110360766Y-68582941D01*
X110499313Y-68490367D01*
X110653258Y-68426601D01*
X110816685Y-68394093D01*
X110983315Y-68394093D01*
X111146742Y-68426601D01*
G37*
G36*
X90672228Y-66734448D02*
G01*
X90817117Y-66794463D01*
X90947515Y-66881592D01*
X91058408Y-66992485D01*
X91145537Y-67122883D01*
X91205552Y-67267772D01*
X91236148Y-67421586D01*
X91236148Y-67578414D01*
X91205552Y-67732228D01*
X91145537Y-67877117D01*
X91058408Y-68007515D01*
X90947515Y-68118408D01*
X90817117Y-68205537D01*
X90672228Y-68265552D01*
X90518414Y-68296148D01*
X90361586Y-68296148D01*
X90207772Y-68265552D01*
X90062883Y-68205537D01*
X89932485Y-68118408D01*
X89821592Y-68007515D01*
X89734463Y-67877117D01*
X89674448Y-67732228D01*
X89643852Y-67578414D01*
X89643852Y-67421586D01*
X89674448Y-67267772D01*
X89734463Y-67122883D01*
X89821592Y-66992485D01*
X89932485Y-66881592D01*
X90062883Y-66794463D01*
X90207772Y-66734448D01*
X90361586Y-66703852D01*
X90518414Y-66703852D01*
X90672228Y-66734448D01*
G37*
G36*
X100832228Y-66734448D02*
G01*
X100977117Y-66794463D01*
X101107515Y-66881592D01*
X101218408Y-66992485D01*
X101305537Y-67122883D01*
X101365552Y-67267772D01*
X101396148Y-67421586D01*
X101396148Y-67578414D01*
X101365552Y-67732228D01*
X101305537Y-67877117D01*
X101218408Y-68007515D01*
X101107515Y-68118408D01*
X100977117Y-68205537D01*
X100832228Y-68265552D01*
X100678414Y-68296148D01*
X100521586Y-68296148D01*
X100367772Y-68265552D01*
X100222883Y-68205537D01*
X100092485Y-68118408D01*
X99981592Y-68007515D01*
X99894463Y-67877117D01*
X99834448Y-67732228D01*
X99803852Y-67578414D01*
X99803852Y-67421586D01*
X99834448Y-67267772D01*
X99894463Y-67122883D01*
X99981592Y-66992485D01*
X100092485Y-66881592D01*
X100222883Y-66794463D01*
X100367772Y-66734448D01*
X100521586Y-66703852D01*
X100678414Y-66703852D01*
X100832228Y-66734448D01*
G37*
G36*
X111750000Y-67550000D02*
G01*
X110050000Y-67550000D01*
X110050000Y-65850000D01*
X111750000Y-65850000D01*
X111750000Y-67550000D01*
G37*
G36*
X68609005Y-61311003D02*
G01*
X68739406Y-61365017D01*
X68856763Y-61443432D01*
X68956568Y-61543237D01*
X69034983Y-61660594D01*
X69088997Y-61790995D01*
X69116533Y-61929428D01*
X69116533Y-62070572D01*
X69088997Y-62209005D01*
X69034983Y-62339406D01*
X68956568Y-62456763D01*
X68856763Y-62556568D01*
X68739406Y-62634983D01*
X68609005Y-62688997D01*
X68470572Y-62716533D01*
X68329428Y-62716533D01*
X68190995Y-62688997D01*
X68060594Y-62634983D01*
X67943237Y-62556568D01*
X67843432Y-62456763D01*
X67765017Y-62339406D01*
X67711003Y-62209005D01*
X67683467Y-62070572D01*
X67683467Y-61929428D01*
X67711003Y-61790995D01*
X67765017Y-61660594D01*
X67843432Y-61543237D01*
X67943237Y-61443432D01*
X68060594Y-61365017D01*
X68190995Y-61311003D01*
X68329428Y-61283467D01*
X68470572Y-61283467D01*
X68609005Y-61311003D01*
G37*
G36*
X71149005Y-58771003D02*
G01*
X71279406Y-58825017D01*
X71396763Y-58903432D01*
X71496568Y-59003237D01*
X71574983Y-59120594D01*
X71628997Y-59250995D01*
X71656533Y-59389428D01*
X71656533Y-59530572D01*
X71628997Y-59669005D01*
X71574983Y-59799406D01*
X71496568Y-59916763D01*
X71396763Y-60016568D01*
X71279406Y-60094983D01*
X71149005Y-60148997D01*
X71010572Y-60176533D01*
X70869428Y-60176533D01*
X70730995Y-60148997D01*
X70600594Y-60094983D01*
X70483237Y-60016568D01*
X70383432Y-59916763D01*
X70305017Y-59799406D01*
X70251003Y-59669005D01*
X70223467Y-59530572D01*
X70223467Y-59389428D01*
X70251003Y-59250995D01*
X70305017Y-59120594D01*
X70383432Y-59003237D01*
X70483237Y-58903432D01*
X70600594Y-58825017D01*
X70730995Y-58771003D01*
X70869428Y-58743467D01*
X71010572Y-58743467D01*
X71149005Y-58771003D01*
G37*
G36*
X111046742Y-57186601D02*
G01*
X111200687Y-57250367D01*
X111339234Y-57342941D01*
X111457059Y-57460766D01*
X111549633Y-57599313D01*
X111613399Y-57753258D01*
X111645907Y-57916685D01*
X111645907Y-58083315D01*
X111613399Y-58246742D01*
X111549633Y-58400687D01*
X111457059Y-58539234D01*
X111339234Y-58657059D01*
X111200687Y-58749633D01*
X111046742Y-58813399D01*
X110883315Y-58845907D01*
X110716685Y-58845907D01*
X110553258Y-58813399D01*
X110399313Y-58749633D01*
X110260766Y-58657059D01*
X110142941Y-58539234D01*
X110050367Y-58400687D01*
X109986601Y-58246742D01*
X109954093Y-58083315D01*
X109954093Y-57916685D01*
X109986601Y-57753258D01*
X110050367Y-57599313D01*
X110142941Y-57460766D01*
X110260766Y-57342941D01*
X110399313Y-57250367D01*
X110553258Y-57186601D01*
X110716685Y-57154093D01*
X110883315Y-57154093D01*
X111046742Y-57186601D01*
G37*
G36*
X95956790Y-54480393D02*
G01*
X96120952Y-54533733D01*
X96274748Y-54612096D01*
X96414393Y-54713553D01*
X96536447Y-54835607D01*
X96637904Y-54975252D01*
X96716267Y-55129048D01*
X96769607Y-55293210D01*
X96796609Y-55463695D01*
X96800000Y-55550000D01*
X96800000Y-56850000D01*
X96796609Y-56936305D01*
X96769607Y-57106790D01*
X96716267Y-57270952D01*
X96637904Y-57424748D01*
X96536447Y-57564393D01*
X96414393Y-57686447D01*
X96274748Y-57787904D01*
X96120952Y-57866267D01*
X95956790Y-57919607D01*
X95786305Y-57946609D01*
X95613695Y-57946609D01*
X95443210Y-57919607D01*
X95279048Y-57866267D01*
X95125252Y-57787904D01*
X94985607Y-57686447D01*
X94863553Y-57564393D01*
X94762096Y-57424748D01*
X94683733Y-57270952D01*
X94630393Y-57106790D01*
X94603391Y-56936305D01*
X94600000Y-56850000D01*
X94600000Y-55550000D01*
X94603391Y-55463695D01*
X94630393Y-55293210D01*
X94683733Y-55129048D01*
X94762096Y-54975252D01*
X94863553Y-54835607D01*
X94985607Y-54713553D01*
X95125252Y-54612096D01*
X95279048Y-54533733D01*
X95443210Y-54480393D01*
X95613695Y-54453391D01*
X95786305Y-54453391D01*
X95956790Y-54480393D01*
G37*
G36*
X104156790Y-54480393D02*
G01*
X104320952Y-54533733D01*
X104474748Y-54612096D01*
X104614393Y-54713553D01*
X104736447Y-54835607D01*
X104837904Y-54975252D01*
X104916267Y-55129048D01*
X104969607Y-55293210D01*
X104996609Y-55463695D01*
X105000000Y-55550000D01*
X105000000Y-56850000D01*
X104996609Y-56936305D01*
X104969607Y-57106790D01*
X104916267Y-57270952D01*
X104837904Y-57424748D01*
X104736447Y-57564393D01*
X104614393Y-57686447D01*
X104474748Y-57787904D01*
X104320952Y-57866267D01*
X104156790Y-57919607D01*
X103986305Y-57946609D01*
X103813695Y-57946609D01*
X103643210Y-57919607D01*
X103479048Y-57866267D01*
X103325252Y-57787904D01*
X103185607Y-57686447D01*
X103063553Y-57564393D01*
X102962096Y-57424748D01*
X102883733Y-57270952D01*
X102830393Y-57106790D01*
X102803391Y-56936305D01*
X102800000Y-56850000D01*
X102800000Y-55550000D01*
X102803391Y-55463695D01*
X102830393Y-55293210D01*
X102883733Y-55129048D01*
X102962096Y-54975252D01*
X103063553Y-54835607D01*
X103185607Y-54713553D01*
X103325252Y-54612096D01*
X103479048Y-54533733D01*
X103643210Y-54480393D01*
X103813695Y-54453391D01*
X103986305Y-54453391D01*
X104156790Y-54480393D01*
G37*
G36*
X68609005Y-56231003D02*
G01*
X68739406Y-56285017D01*
X68856763Y-56363432D01*
X68956568Y-56463237D01*
X69034983Y-56580594D01*
X69088997Y-56710995D01*
X69116533Y-56849428D01*
X69116533Y-56990572D01*
X69088997Y-57129005D01*
X69034983Y-57259406D01*
X68956568Y-57376763D01*
X68856763Y-57476568D01*
X68739406Y-57554983D01*
X68609005Y-57608997D01*
X68470572Y-57636533D01*
X68329428Y-57636533D01*
X68190995Y-57608997D01*
X68060594Y-57554983D01*
X67943237Y-57476568D01*
X67843432Y-57376763D01*
X67765017Y-57259406D01*
X67711003Y-57129005D01*
X67683467Y-56990572D01*
X67683467Y-56849428D01*
X67711003Y-56710995D01*
X67765017Y-56580594D01*
X67843432Y-56463237D01*
X67943237Y-56363432D01*
X68060594Y-56285017D01*
X68190995Y-56231003D01*
X68329428Y-56203467D01*
X68470572Y-56203467D01*
X68609005Y-56231003D01*
G37*
G36*
X98550000Y-57450000D02*
G01*
X97050000Y-57450000D01*
X97050000Y-54950000D01*
X98550000Y-54950000D01*
X98550000Y-57450000D01*
G37*
G36*
X100017714Y-54982295D02*
G01*
X100153548Y-55038559D01*
X100275795Y-55120242D01*
X100379758Y-55224205D01*
X100461441Y-55346452D01*
X100517705Y-55482286D01*
X100546389Y-55626487D01*
X100550000Y-55700000D01*
X100550000Y-56700000D01*
X100546389Y-56773513D01*
X100517705Y-56917714D01*
X100461441Y-57053548D01*
X100379758Y-57175795D01*
X100275795Y-57279758D01*
X100153548Y-57361441D01*
X100017714Y-57417705D01*
X99873513Y-57446389D01*
X99726487Y-57446389D01*
X99582286Y-57417705D01*
X99446452Y-57361441D01*
X99324205Y-57279758D01*
X99220242Y-57175795D01*
X99138559Y-57053548D01*
X99082295Y-56917714D01*
X99053611Y-56773513D01*
X99050000Y-56700000D01*
X99050000Y-55700000D01*
X99053611Y-55626487D01*
X99082295Y-55482286D01*
X99138559Y-55346452D01*
X99220242Y-55224205D01*
X99324205Y-55120242D01*
X99446452Y-55038559D01*
X99582286Y-54982295D01*
X99726487Y-54953611D01*
X99873513Y-54953611D01*
X100017714Y-54982295D01*
G37*
G36*
X102017714Y-54982295D02*
G01*
X102153548Y-55038559D01*
X102275795Y-55120242D01*
X102379758Y-55224205D01*
X102461441Y-55346452D01*
X102517705Y-55482286D01*
X102546389Y-55626487D01*
X102550000Y-55700000D01*
X102550000Y-56700000D01*
X102546389Y-56773513D01*
X102517705Y-56917714D01*
X102461441Y-57053548D01*
X102379758Y-57175795D01*
X102275795Y-57279758D01*
X102153548Y-57361441D01*
X102017714Y-57417705D01*
X101873513Y-57446389D01*
X101726487Y-57446389D01*
X101582286Y-57417705D01*
X101446452Y-57361441D01*
X101324205Y-57279758D01*
X101220242Y-57175795D01*
X101138559Y-57053548D01*
X101082295Y-56917714D01*
X101053611Y-56773513D01*
X101050000Y-56700000D01*
X101050000Y-55700000D01*
X101053611Y-55626487D01*
X101082295Y-55482286D01*
X101138559Y-55346452D01*
X101220242Y-55224205D01*
X101324205Y-55120242D01*
X101446452Y-55038559D01*
X101582286Y-54982295D01*
X101726487Y-54953611D01*
X101873513Y-54953611D01*
X102017714Y-54982295D01*
G37*
G36*
X111650000Y-56310000D02*
G01*
X109950000Y-56310000D01*
X109950000Y-54610000D01*
X111650000Y-54610000D01*
X111650000Y-56310000D01*
G37*
M02*
