%TF.GenerationSoftware,KiCad,Pcbnew,10.0.1*%
%TF.CreationDate,2026-04-29T08:15:31+05:30*%
%TF.ProjectId,atari_punk_console,61746172-695f-4707-956e-6b5f636f6e73,rev?*%
%TF.SameCoordinates,Original*%
%TF.FileFunction,Copper,L3,Inr*%
%TF.FilePolarity,Positive*%
%FSLAX46Y46*%
G04 Gerber Fmt 4.6, Leading zero omitted, Abs format (unit mm)*
G04 Created by KiCad (PCBNEW 10.0.1) date 2026-04-29 08:15:31*
%MOMM*%
%LPD*%
G01*
G04 APERTURE LIST*
G04 Aperture macros list*
%AMRoundRect*
0 Rectangle with rounded corners*
0 $1 Rounding radius*
0 $2 $3 $4 $5 $6 $7 $8 $9 X,Y pos of 4 corners*
0 Add a 4 corners polygon primitive as box body*
4,1,4,$2,$3,$4,$5,$6,$7,$8,$9,$2,$3,0*
0 Add four circle primitives for the rounded corners*
1,1,$1+$1,$2,$3*
1,1,$1+$1,$4,$5*
1,1,$1+$1,$6,$7*
1,1,$1+$1,$8,$9*
0 Add four rect primitives between the rounded corners*
20,1,$1+$1,$2,$3,$4,$5,0*
20,1,$1+$1,$4,$5,$6,$7,0*
20,1,$1+$1,$6,$7,$8,$9,0*
20,1,$1+$1,$8,$9,$2,$3,0*%
G04 Aperture macros list end*
%TA.AperFunction,ComponentPad*%
%ADD10R,1.700000X1.700000*%
%TD*%
%TA.AperFunction,ComponentPad*%
%ADD11C,1.700000*%
%TD*%
%TA.AperFunction,ComponentPad*%
%ADD12C,1.600000*%
%TD*%
%TA.AperFunction,ComponentPad*%
%ADD13C,1.440000*%
%TD*%
%TA.AperFunction,ComponentPad*%
%ADD14C,1.500000*%
%TD*%
%TA.AperFunction,ComponentPad*%
%ADD15O,2.200000X3.500000*%
%TD*%
%TA.AperFunction,ComponentPad*%
%ADD16R,1.500000X2.500000*%
%TD*%
%TA.AperFunction,ComponentPad*%
%ADD17O,1.500000X2.500000*%
%TD*%
%TA.AperFunction,ComponentPad*%
%ADD18RoundRect,0.250000X0.550000X-0.550000X0.550000X0.550000X-0.550000X0.550000X-0.550000X-0.550000X0*%
%TD*%
%TA.AperFunction,ViaPad*%
%ADD19C,0.685800*%
%TD*%
G04 APERTURE END LIST*
D10*
%TO.N,Net-(LS1-Pad1)*%
%TO.C,LS1*%
X110800000Y-55460000D03*
D11*
%TO.N,GND*%
X110800000Y-58000000D03*
%TD*%
D12*
%TO.N,Net-(U1B-CONT)*%
%TO.C,C3*%
X110800000Y-80200000D03*
%TO.N,GND*%
X110800000Y-75200000D03*
%TD*%
D13*
%TO.N,VCC*%
%TO.C,RV1*%
X67800000Y-87700000D03*
%TO.N,Net-(U1A-DISCH)*%
X70340000Y-85160000D03*
%TO.N,Net-(U1A-THRES)*%
X67800000Y-82620000D03*
%TD*%
D12*
%TO.N,Net-(U1A-OUT)*%
%TO.C,R1*%
X90440000Y-67500000D03*
%TO.N,Net-(U1B-THRES)*%
X100600000Y-67500000D03*
%TD*%
D14*
%TO.N,GND*%
%TO.C,C2*%
X79100000Y-80700000D03*
%TO.N,Net-(U1B-THRES)*%
X79100000Y-75700000D03*
%TD*%
D12*
%TO.N,Net-(U1B-OUT)*%
%TO.C,R2*%
X87080000Y-88600000D03*
%TO.N,Net-(LS1-Pad1)*%
X102320000Y-88600000D03*
%TD*%
D13*
%TO.N,VCC*%
%TO.C,RV2*%
X68400000Y-62000000D03*
%TO.N,Net-(U1B-DISCH)*%
X70940000Y-59460000D03*
%TO.N,Net-(U1B-THRES)*%
X68400000Y-56920000D03*
%TD*%
D12*
%TO.N,Net-(U1A-CONT)*%
%TO.C,C1*%
X110800000Y-89600000D03*
%TO.N,GND*%
X110800000Y-84600000D03*
%TD*%
D15*
%TO.N,*%
%TO.C,SW1*%
X95700000Y-56200000D03*
X103900000Y-56200000D03*
D16*
%TO.N,Net-(BT1-+)*%
X97800000Y-56200000D03*
D17*
%TO.N,unconnected-(SW1-B-Pad2)*%
X99800000Y-56200000D03*
%TO.N,VCC*%
X101800000Y-56200000D03*
%TD*%
D18*
%TO.N,Net-(U1A-DISCH)*%
%TO.C,U1*%
X86840000Y-81900000D03*
D12*
%TO.N,Net-(U1A-THRES)*%
X89380000Y-81900000D03*
%TO.N,Net-(U1A-CONT)*%
X91920000Y-81900000D03*
%TO.N,VCC*%
X94460000Y-81900000D03*
%TO.N,Net-(U1A-OUT)*%
X97000000Y-81900000D03*
%TO.N,Net-(U1A-THRES)*%
X99540000Y-81900000D03*
%TO.N,GND*%
X102080000Y-81900000D03*
%TO.N,Net-(U1B-THRES)*%
X102080000Y-74280000D03*
%TO.N,Net-(U1B-OUT)*%
X99540000Y-74280000D03*
%TO.N,VCC*%
X97000000Y-74280000D03*
%TO.N,Net-(U1B-CONT)*%
X94460000Y-74280000D03*
%TO.N,Net-(U1B-THRES)*%
X91920000Y-74280000D03*
%TO.N,Net-(U1B-DISCH)*%
X89380000Y-74280000D03*
%TO.N,VCC*%
X86840000Y-74280000D03*
%TD*%
D10*
%TO.N,Net-(BT1-+)*%
%TO.C,BT1*%
X110900000Y-66700000D03*
D11*
%TO.N,GND*%
X110900000Y-69240000D03*
%TD*%
D19*
%TO.N,VCC*%
X106000000Y-72000000D03*
X106000000Y-83000000D03*
%TO.N,Net-(U1B-THRES)*%
X97457100Y-76329719D03*
X95000000Y-76500000D03*
%TO.N,VCC*%
X94500000Y-72000000D03*
X91000000Y-72000000D03*
%TD*%
M02*
