M48
; DRILL file KiCad 10.0.1 date 2026-04-29T08:15:46
; FORMAT={-:-/ absolute / metric / decimal}
; #@! TF.CreationDate,2026-04-29T08:15:46+05:30
; #@! TF.GenerationSoftware,Kicad,Pcbnew,10.0.1
; #@! TF.FileFunction,Plated,1,4,PTH
FMAT,2
METRIC
; #@! TA.AperFunction,Plated,PTH,ViaDrill
T1C0.330
; #@! TA.AperFunction,Plated,PTH,ComponentDrill
T2C0.750
; #@! TA.AperFunction,Plated,PTH,ComponentDrill
T3C0.800
; #@! TA.AperFunction,Plated,PTH,ComponentDrill
T4C1.000
; #@! TA.AperFunction,Plated,PTH,ComponentDrill
T5C1.500
%
G90
G05
T1
X91.0Y-72.0
X94.5Y-72.0
X95.0Y-76.5
X97.457Y-76.33
X106.0Y-72.0
X106.0Y-83.0
T2
X79.1Y-75.7
X79.1Y-80.7
T3
X67.8Y-82.62
X67.8Y-87.7
X68.4Y-56.92
X68.4Y-62.0
X70.34Y-85.16
X70.94Y-59.46
X86.84Y-74.28
X86.84Y-81.9
X87.08Y-88.6
X89.38Y-74.28
X89.38Y-81.9
X90.44Y-67.5
X91.92Y-74.28
X91.92Y-81.9
X94.46Y-74.28
X94.46Y-81.9
X97.0Y-74.28
X97.0Y-81.9
X97.8Y-56.2
X99.54Y-74.28
X99.54Y-81.9
X99.8Y-56.2
X100.6Y-67.5
X101.8Y-56.2
X102.08Y-74.28
X102.08Y-81.9
X102.32Y-88.6
X110.8Y-75.2
X110.8Y-80.2
X110.8Y-84.6
X110.8Y-89.6
T4
X110.8Y-55.46
X110.8Y-58.0
X110.9Y-66.7
X110.9Y-69.24
T5
X95.7Y-56.2
X103.9Y-56.2
M30
